<svg width="50" height="50" viewBox="0 0 50 50" fill="none" xmlns="http://www.w3.org/2000/svg">
<g clip-path="url(#clip0_3616_22951)">
<rect width="50" height="50" rx="10" fill="#DCFCE5"/>
<g clip-path="url(#clip1_3616_22951)">
<g clip-path="url(#clip2_3616_22951)">
<g clip-path="url(#clip3_3616_22951)">
<path d="M27.5747 22.4241L26.2497 21.8116C26.1405 21.7619 26.048 21.6818 25.9832 21.581C25.9183 21.4801 25.8838 21.3627 25.8838 21.2428C25.8838 21.1229 25.9183 21.0055 25.9832 20.9047C26.048 20.8038 26.1405 20.7238 26.2497 20.6741L27.5747 20.0616L28.1872 18.7491C28.2369 18.64 28.3169 18.5474 28.4178 18.4826C28.5186 18.4177 28.636 18.3832 28.7559 18.3832C28.8758 18.3832 28.9932 18.4177 29.094 18.4826C29.1949 18.5474 29.2749 18.64 29.3247 18.7491L29.9372 20.0741L31.2497 20.6866C31.3588 20.7363 31.4513 20.8163 31.5162 20.9172C31.581 21.018 31.6155 21.1354 31.6155 21.2553C31.6155 21.3752 31.581 21.4926 31.5162 21.5935C31.4513 21.6943 31.3588 21.7744 31.2497 21.8241L29.9247 22.4366L29.3122 23.7491C29.2624 23.8582 29.1824 23.9507 29.0815 24.0156C28.9807 24.0804 28.8633 24.1149 28.7434 24.1149C28.6235 24.1149 28.5061 24.0804 28.4053 24.0156C28.3044 23.9507 28.2244 23.8582 28.1747 23.7491L27.5747 22.4241ZM15.5622 26.2491L16.1747 24.9241L17.4997 24.3116C17.6088 24.2619 17.7013 24.1818 17.7662 24.081C17.831 23.9801 17.8655 23.8627 17.8655 23.7428C17.8655 23.6229 17.831 23.5055 17.7662 23.4047C17.7013 23.3038 17.6088 23.2238 17.4997 23.1741L16.1747 22.5616L15.5622 21.2491C15.514 21.1401 15.4352 21.0474 15.3353 20.9824C15.2354 20.9173 15.1188 20.8827 14.9997 20.8827C14.8805 20.8827 14.7639 20.9173 14.664 20.9824C14.5642 21.0474 14.4853 21.1401 14.4372 21.2491L13.8247 22.5741L12.4997 23.1866C12.3905 23.2363 12.298 23.3163 12.2332 23.4172C12.1683 23.518 12.1338 23.6354 12.1338 23.7553C12.1338 23.8752 12.1683 23.9926 12.2332 24.0935C12.298 24.1943 12.3905 24.2744 12.4997 24.3241L13.8247 24.9366L14.4372 26.2491C14.6497 26.7366 15.3497 26.7366 15.5622 26.2491ZM21.1997 19.9866L21.9872 18.2366L23.7372 17.4491C23.8463 17.3994 23.9388 17.3193 24.0037 17.2185C24.0685 17.1176 24.103 17.0002 24.103 16.8803C24.103 16.7604 24.0685 16.643 24.0037 16.5422C23.9388 16.4413 23.8463 16.3613 23.7372 16.3116L21.9872 15.5241L21.1997 13.7741C21.1499 13.665 21.0699 13.5724 20.969 13.5076C20.8682 13.4427 20.7508 13.4082 20.6309 13.4082C20.511 13.4082 20.3936 13.4427 20.2928 13.5076C20.1919 13.5724 20.1119 13.665 20.0622 13.7741L19.2747 15.5241L17.5247 16.3116C17.4155 16.3613 17.323 16.4413 17.2582 16.5422C17.1933 16.643 17.1588 16.7604 17.1588 16.8803C17.1588 17.0002 17.1933 17.1176 17.2582 17.2185C17.323 17.3193 17.4155 17.3994 17.5247 17.4491L19.2747 18.2366L20.0622 19.9866C20.2747 20.4741 20.9747 20.4741 21.1997 19.9866ZM37.9247 20.3366C37.8045 20.2168 37.6613 20.1228 37.5036 20.0601C37.346 19.9975 37.1772 19.9676 37.0077 19.9723C36.8381 19.977 36.6713 20.0161 36.5173 20.0873C36.3634 20.1586 36.2255 20.2604 36.1122 20.3866L28.1247 29.3616L24.0122 25.2491C23.8965 25.1332 23.7592 25.0413 23.6079 24.9785C23.4567 24.9158 23.2946 24.8835 23.1309 24.8835C22.9672 24.8835 22.8051 24.9158 22.6539 24.9785C22.5027 25.0413 22.3653 25.1332 22.2497 25.2491L14.6997 32.8116C14.1872 33.3241 14.1872 34.1741 14.6997 34.6866C15.2122 35.1991 16.0622 35.1991 16.5747 34.6866L23.1372 28.1116L27.1997 32.1741C27.7122 32.6866 28.5372 32.6616 29.0122 32.1241L37.9747 22.0366C38.4122 21.5491 38.3872 20.7991 37.9247 20.3366Z" fill="#16A341"/>
</g>
</g>
</g>
</g>
<defs>
<clipPath id="clip0_3616_22951">
<rect width="50" height="50" rx="10" fill="white"/>
</clipPath>
<clipPath id="clip1_3616_22951">
<rect width="30" height="30" fill="white" transform="translate(10 10)"/>
</clipPath>
<clipPath id="clip2_3616_22951">
<rect x="10" y="10" width="30" height="30" rx="0.1" fill="white"/>
</clipPath>
<clipPath id="clip3_3616_22951">
<rect width="30" height="30" fill="white" transform="translate(10 10)"/>
</clipPath>
</defs>
</svg>
