<svg width="50" height="50" viewBox="0 0 50 50" fill="none" xmlns="http://www.w3.org/2000/svg">
<g clip-path="url(#clip0_3616_22984)">
<rect width="50" height="50" rx="10" fill="#DCFCE5"/>
<g clip-path="url(#clip1_3616_22984)">
<g clip-path="url(#clip2_3616_22984)">
<g clip-path="url(#clip3_3616_22984)">
<path d="M36.468 22.0492C36.0262 21.5875 35.5691 21.1117 35.3969 20.6934C35.2375 20.3102 35.2281 19.675 35.2188 19.0598C35.2012 17.916 35.1824 16.6199 34.2812 15.7188C33.3801 14.8176 32.084 14.7988 30.9402 14.7812C30.325 14.7719 29.6898 14.7625 29.3066 14.6031C28.8895 14.4309 28.4125 13.9738 27.9508 13.532C27.1422 12.7551 26.2234 11.875 25 11.875C23.7766 11.875 22.859 12.7551 22.0492 13.532C21.5875 13.9738 21.1117 14.4309 20.6934 14.6031C20.3125 14.7625 19.675 14.7719 19.0598 14.7812C17.916 14.7988 16.6199 14.8176 15.7188 15.7188C14.8176 16.6199 14.8047 17.916 14.7812 19.0598C14.7719 19.675 14.7625 20.3102 14.6031 20.6934C14.4309 21.1105 13.9738 21.5875 13.532 22.0492C12.7551 22.8578 11.875 23.7766 11.875 25C11.875 26.2234 12.7551 27.141 13.532 27.9508C13.9738 28.4125 14.4309 28.8883 14.6031 29.3066C14.7625 29.6898 14.7719 30.325 14.7812 30.9402C14.7988 32.084 14.8176 33.3801 15.7188 34.2812C16.6199 35.1824 17.916 35.2012 19.0598 35.2188C19.675 35.2281 20.3102 35.2375 20.6934 35.3969C21.1105 35.5691 21.5875 36.0262 22.0492 36.468C22.8578 37.2449 23.7766 38.125 25 38.125C26.2234 38.125 27.141 37.2449 27.9508 36.468C28.4125 36.0262 28.8883 35.5691 29.3066 35.3969C29.6898 35.2375 30.325 35.2281 30.9402 35.2188C32.084 35.2012 33.3801 35.1824 34.2812 34.2812C35.1824 33.3801 35.2012 32.084 35.2188 30.9402C35.2281 30.325 35.2375 29.6898 35.3969 29.3066C35.5691 28.8895 36.0262 28.4125 36.468 27.9508C37.2449 27.1422 38.125 26.2234 38.125 25C38.125 23.7766 37.2449 22.859 36.468 22.0492ZM35.1145 26.6535C34.5531 27.2395 33.9719 27.8453 33.6637 28.5895C33.3684 29.3043 33.3555 30.1211 33.3438 30.9121C33.332 31.7324 33.3191 32.5914 32.9547 32.9547C32.5902 33.318 31.7371 33.332 30.9121 33.3438C30.1211 33.3555 29.3043 33.3684 28.5895 33.6637C27.8453 33.9719 27.2395 34.5531 26.6535 35.1145C26.0676 35.6758 25.4688 36.25 25 36.25C24.5312 36.25 23.9277 35.6734 23.3465 35.1145C22.7652 34.5555 22.1547 33.9719 21.4105 33.6637C20.6957 33.3684 19.8789 33.3555 19.0879 33.3438C18.2676 33.332 17.4086 33.3191 17.0453 32.9547C16.682 32.5902 16.668 31.7371 16.6562 30.9121C16.6445 30.1211 16.6316 29.3043 16.3363 28.5895C16.0281 27.8453 15.4469 27.2395 14.8855 26.6535C14.3242 26.0676 13.75 25.4688 13.75 25C13.75 24.5312 14.3266 23.9277 14.8855 23.3465C15.4445 22.7652 16.0281 22.1547 16.3363 21.4105C16.6316 20.6957 16.6445 19.8789 16.6562 19.0879C16.668 18.2676 16.6809 17.4086 17.0453 17.0453C17.4098 16.682 18.2629 16.668 19.0879 16.6562C19.8789 16.6445 20.6957 16.6316 21.4105 16.3363C22.1547 16.0281 22.7605 15.4469 23.3465 14.8855C23.9324 14.3242 24.5312 13.75 25 13.75C25.4688 13.75 26.0723 14.3266 26.6535 14.8855C27.2348 15.4445 27.8453 16.0281 28.5895 16.3363C29.3043 16.6316 30.1211 16.6445 30.9121 16.6562C31.7324 16.668 32.5914 16.6809 32.9547 17.0453C33.318 17.4098 33.332 18.2629 33.3438 19.0879C33.3555 19.8789 33.3684 20.6957 33.6637 21.4105C33.9719 22.1547 34.5531 22.7605 35.1145 23.3465C35.6758 23.9324 36.25 24.5312 36.25 25C36.25 25.4688 35.6734 26.0723 35.1145 26.6535ZM30.3508 21.5242C30.4379 21.6113 30.5071 21.7147 30.5543 21.8285C30.6015 21.9423 30.6257 22.0643 30.6257 22.1875C30.6257 22.3107 30.6015 22.4327 30.5543 22.5465C30.5071 22.6603 30.4379 22.7637 30.3508 22.8508L23.7883 29.4133C23.7012 29.5004 23.5978 29.5696 23.484 29.6168C23.3702 29.664 23.2482 29.6882 23.125 29.6882C23.0018 29.6882 22.8798 29.664 22.766 29.6168C22.6522 29.5696 22.5488 29.5004 22.4617 29.4133L19.6492 26.6008C19.4733 26.4249 19.3745 26.1863 19.3745 25.9375C19.3745 25.6887 19.4733 25.4501 19.6492 25.2742C19.8251 25.0983 20.0637 24.9995 20.3125 24.9995C20.5613 24.9995 20.7999 25.0983 20.9758 25.2742L23.125 27.4246L29.0242 21.5242C29.1113 21.4371 29.2147 21.3679 29.3285 21.3207C29.4423 21.2735 29.5643 21.2493 29.6875 21.2493C29.8107 21.2493 29.9327 21.2735 30.0465 21.3207C30.1603 21.3679 30.2637 21.4371 30.3508 21.5242Z" fill="#16A341"/>
</g>
</g>
</g>
</g>
<defs>
<clipPath id="clip0_3616_22984">
<rect width="50" height="50" rx="10" fill="white"/>
</clipPath>
<clipPath id="clip1_3616_22984">
<rect width="30" height="30" fill="white" transform="translate(10 10)"/>
</clipPath>
<clipPath id="clip2_3616_22984">
<rect x="10" y="10" width="30" height="30" rx="0.1" fill="white"/>
</clipPath>
<clipPath id="clip3_3616_22984">
<rect width="30" height="30" fill="white" transform="translate(10 10)"/>
</clipPath>
</defs>
</svg>
