<svg width="50" height="50" viewBox="0 0 50 50" fill="none" xmlns="http://www.w3.org/2000/svg">
<g clip-path="url(#clip0_3616_22918)">
<rect width="50" height="50" rx="10" fill="#F9E8DB"/>
<g clip-path="url(#clip1_3616_22918)">
<g clip-path="url(#clip2_3616_22918)">
<g clip-path="url(#clip3_3616_22918)">
<path d="M25 11.875C22.4041 11.875 19.8665 12.6448 17.7081 14.087C15.5498 15.5292 13.8675 17.579 12.8741 19.9773C11.8807 22.3756 11.6208 25.0146 12.1272 27.5606C12.6336 30.1066 13.8837 32.4452 15.7192 34.2808C17.5548 36.1163 19.8934 37.3664 22.4394 37.8728C24.9854 38.3792 27.6244 38.1193 30.0227 37.1259C32.421 36.1325 34.4709 34.4503 35.913 32.2919C37.3552 30.1335 38.125 27.5959 38.125 25C38.121 21.5203 36.737 18.1842 34.2764 15.7236C31.8158 13.2631 28.4798 11.879 25 11.875ZM25 36.25C22.0163 36.25 19.1548 35.0647 17.0451 32.955C14.9353 30.8452 13.75 27.9837 13.75 25C13.75 22.0163 14.9353 19.1548 17.0451 17.045C19.1548 14.9353 22.0163 13.75 25 13.75V25L32.9509 32.9509C31.9083 33.9975 30.6692 34.8277 29.3047 35.3939C27.9402 35.96 26.4773 36.251 25 36.25Z" fill="#DA6135"/>
</g>
</g>
</g>
</g>
<defs>
<clipPath id="clip0_3616_22918">
<rect width="50" height="50" rx="10" fill="white"/>
</clipPath>
<clipPath id="clip1_3616_22918">
<rect width="30" height="30" fill="white" transform="translate(10 10)"/>
</clipPath>
<clipPath id="clip2_3616_22918">
<rect x="10" y="10" width="30" height="30" rx="0.1" fill="white"/>
</clipPath>
<clipPath id="clip3_3616_22918">
<rect width="30" height="30" fill="white" transform="translate(10 10)"/>
</clipPath>
</defs>
</svg>
