<svg width="50" height="50" viewBox="0 0 50 50" fill="none" xmlns="http://www.w3.org/2000/svg">
<g clip-path="url(#clip0_3616_22885)">
<rect width="50" height="50" rx="10" fill="#E1ECF8"/>
<g clip-path="url(#clip1_3616_22885)">
<g clip-path="url(#clip2_3616_22885)">
<g clip-path="url(#clip3_3616_22885)">
<path d="M25 31.75C24.2458 31.7502 23.5192 31.4662 22.9649 30.9548C22.4106 30.4433 22.0693 29.7418 22.009 28.99C20.0083 28.2818 18.3221 26.8896 17.248 25.059C16.174 23.2285 15.7812 21.0774 16.1389 18.9854C16.4967 16.8934 17.582 14.9951 19.2033 13.6255C20.8246 12.2559 22.8776 11.5031 25 11.5C27.2573 11.4997 29.4324 12.3476 31.0939 13.8757C32.7553 15.4038 33.7819 17.5005 33.97 19.75C33.9763 19.8476 33.9622 19.9454 33.9286 20.0372C33.895 20.129 33.8427 20.2129 33.775 20.2834C33.7073 20.354 33.6257 20.4096 33.5353 20.4469C33.4449 20.4842 33.3477 20.5023 33.25 20.5C33.0491 20.495 32.8572 20.4154 32.7117 20.2768C32.5661 20.1382 32.4773 19.9504 32.4625 19.75C32.3289 18.4238 31.8443 17.1571 31.0585 16.0804C30.2727 15.0036 29.2141 14.1558 27.9918 13.6241C26.7695 13.0925 25.4275 12.8961 24.1041 13.0554C22.7807 13.2147 21.5236 13.7238 20.4624 14.5303C19.4011 15.3368 18.5739 16.4116 18.066 17.644C17.5581 18.8764 17.3879 20.2219 17.5728 21.542C17.7577 22.8621 18.291 24.109 19.1179 25.1545C19.9449 26.1999 21.0355 27.0061 22.2775 27.49C22.5035 27.0017 22.8567 26.5831 23.3 26.2782C23.7434 25.9733 24.2605 25.7932 24.7974 25.7569C25.3343 25.7205 25.871 25.8292 26.3514 26.0716C26.8318 26.314 27.2382 26.6811 27.5279 27.1345C27.8177 27.5879 27.9802 28.1109 27.9984 28.6486C28.0165 29.1864 27.8897 29.7192 27.6313 30.1911C27.3728 30.663 26.9921 31.0568 26.5292 31.331C26.0663 31.6053 25.5381 31.75 25 31.75ZM17.5135 28H17.65C18.235 28.5715 18.8845 29.0755 19.588 29.5H17.5135C16.672 29.5 16 30.1705 16 31C16 32.9635 16.933 34.426 18.5095 35.4295C20.1145 36.454 22.3975 37 25 37C27.6025 37 29.8855 36.454 31.4905 35.4295C33.0655 34.4245 34 32.965 34 31C34 30.6022 33.842 30.2206 33.5607 29.9393C33.2794 29.658 32.8978 29.5 32.5 29.5H29.4385C29.5224 29.0035 29.5224 28.4965 29.4385 28H32.5C33.2956 28 34.0587 28.3161 34.6213 28.8787C35.1839 29.4413 35.5 30.2044 35.5 31C35.5 33.5365 34.2505 35.449 32.2975 36.6955C30.3745 37.921 27.7825 38.5 25 38.5C22.2175 38.5 19.6255 37.921 17.7025 36.6955C15.7495 35.4505 14.5 33.535 14.5 31C14.5 29.3305 15.8545 28 17.5135 28ZM31 20.5C31.0003 21.515 30.7432 22.5134 30.2526 23.4019C29.762 24.2905 29.0541 25.04 28.195 25.5805C27.7946 25.1767 27.3212 24.8525 26.8 24.625C27.7475 24.2115 28.5238 23.4843 28.9982 22.5657C29.4726 21.6472 29.6163 20.5933 29.4051 19.5813C29.1939 18.5693 28.6406 17.6608 27.8384 17.0087C27.0361 16.3567 26.0338 16.0007 25 16.0007C23.9662 16.0007 22.9639 16.3567 22.1616 17.0087C21.3594 17.6608 20.8061 18.5693 20.5949 19.5813C20.3837 20.5933 20.5274 21.6472 21.0018 22.5657C21.4762 23.4843 22.2525 24.2115 23.2 24.625C22.675 24.8545 22.2025 25.18 21.805 25.5805C20.6656 24.864 19.8003 23.7852 19.348 22.5175C19.1173 21.8699 18.9996 21.1875 19 20.5C19 18.9087 19.6321 17.3826 20.7574 16.2574C21.8826 15.1321 23.4087 14.5 25 14.5C26.5913 14.5 28.1174 15.1321 29.2426 16.2574C30.3679 17.3826 31 18.9087 31 20.5Z" fill="#3E64B7"/>
</g>
</g>
</g>
</g>
<defs>
<clipPath id="clip0_3616_22885">
<rect width="50" height="50" rx="10" fill="white"/>
</clipPath>
<clipPath id="clip1_3616_22885">
<rect width="30" height="30" fill="white" transform="translate(10 10)"/>
</clipPath>
<clipPath id="clip2_3616_22885">
<rect x="10" y="10" width="30" height="30" rx="0.1" fill="white"/>
</clipPath>
<clipPath id="clip3_3616_22885">
<rect width="30" height="30" fill="white" transform="translate(10 10)"/>
</clipPath>
</defs>
</svg>
