<svg xmlns="http://www.w3.org/2000/svg" xmlns:xlink="http://www.w3.org/1999/xlink" width="2000" zoomAndPan="magnify" viewBox="0 0 1500 1499.999933" height="2000" preserveAspectRatio="xMidYMid meet" version="1.0"><path fill="#7788fc" d="M 535.894531 564.550781 C 541.953125 564.542969 548.011719 564.53125 554.070312 564.523438 C 566.699219 564.507812 579.328125 564.503906 591.957031 564.503906 C 608.027344 564.503906 624.09375 564.46875 640.164062 564.425781 C 652.65625 564.398438 665.144531 564.390625 677.636719 564.394531 C 683.558594 564.390625 689.476562 564.378906 695.398438 564.359375 C 770.546875 564.128906 836.886719 571.308594 896.671875 621.546875 C 898.777344 624.179688 900.882812 626.8125 903.050781 629.523438 C 912.105469 638.554688 920.101562 638.8125 932.519531 638.972656 C 936.527344 638.90625 936.527344 638.90625 940.617188 638.839844 C 943.46875 638.855469 946.316406 638.871094 949.253906 638.886719 C 958.667969 638.917969 968.082031 638.84375 977.496094 638.773438 C 984.070312 638.785156 990.640625 638.800781 997.214844 638.824219 C 1012.765625 638.871094 1028.320312 638.851562 1043.871094 638.796875 C 1073.277344 638.695312 1102.683594 638.699219 1132.089844 638.769531 C 1141.699219 638.773438 1151.304688 638.726562 1160.914062 638.675781 C 1229.390625 638.546875 1286.003906 652.410156 1338.925781 698.6875 C 1340.695312 700.207031 1342.460938 701.730469 1344.28125 703.296875 C 1381.8125 738.015625 1406.105469 793.320312 1408.839844 844.054688 C 1409.054688 854.613281 1409.105469 865.160156 1409.097656 875.71875 C 1409.113281 879.753906 1409.132812 883.792969 1409.152344 887.828125 C 1409.195312 898.71875 1409.207031 909.609375 1409.210938 920.503906 C 1409.214844 927.332031 1409.226562 934.160156 1409.238281 940.988281 C 1409.285156 964.878906 1409.308594 988.769531 1409.304688 1012.660156 C 1409.300781 1034.820312 1409.355469 1056.976562 1409.4375 1079.136719 C 1409.503906 1098.25 1409.53125 1117.363281 1409.527344 1136.480469 C 1409.527344 1147.855469 1409.539062 1159.230469 1409.59375 1170.605469 C 1409.644531 1181.324219 1409.644531 1192.039062 1409.609375 1202.757812 C 1409.601562 1206.652344 1409.613281 1210.550781 1409.644531 1214.445312 C 1410.136719 1279.542969 1387.617188 1336.652344 1342.140625 1383.441406 C 1288.476562 1436.199219 1222.816406 1445.550781 1150.5625 1445.347656 C 1144.328125 1445.355469 1138.09375 1445.371094 1131.859375 1445.386719 C 1116.765625 1445.417969 1101.671875 1445.414062 1086.582031 1445.390625 C 1074.292969 1445.375 1062.007812 1445.371094 1049.722656 1445.382812 C 1047.085938 1445.382812 1047.085938 1445.382812 1044.394531 1445.382812 C 1040.824219 1445.386719 1037.25 1445.390625 1033.679688 1445.390625 C 1000.277344 1445.414062 966.875 1445.390625 933.472656 1445.347656 C 904.914062 1445.3125 876.359375 1445.320312 847.800781 1445.355469 C 814.523438 1445.394531 781.246094 1445.410156 747.96875 1445.386719 C 744.40625 1445.386719 740.847656 1445.382812 737.285156 1445.382812 C 735.535156 1445.378906 733.78125 1445.378906 731.976562 1445.378906 C 719.734375 1445.371094 707.492188 1445.382812 695.25 1445.398438 C 678.714844 1445.421875 662.175781 1445.40625 645.636719 1445.363281 C 639.605469 1445.351562 633.570312 1445.355469 627.539062 1445.371094 C 523.621094 1445.640625 432.796875 1416.699219 354.140625 1346.640625 C 352.234375 1344.398438 352.234375 1344.398438 350.292969 1342.109375 C 338.179688 1332.136719 314.585938 1335.957031 299.730469 1335.902344 C 293.488281 1335.84375 287.246094 1335.78125 281.003906 1335.71875 C 271.226562 1335.628906 261.449219 1335.554688 251.671875 1335.519531 C 242.195312 1335.476562 232.714844 1335.375 223.234375 1335.261719 C 218.925781 1335.269531 218.925781 1335.269531 214.53125 1335.277344 C 177.464844 1334.710938 149.878906 1322.90625 122.65625 1298.199219 C 103.230469 1278.09375 91.601562 1250.585938 91.492188 1222.78125 C 91.472656 1219.523438 91.457031 1216.265625 91.4375 1212.910156 C 91.429688 1209.304688 91.421875 1205.699219 91.417969 1202.09375 C 91.398438 1198.292969 91.382812 1194.488281 91.363281 1190.6875 C 91.3125 1178.203125 91.285156 1165.71875 91.257812 1153.234375 C 91.25 1148.929688 91.238281 1144.621094 91.226562 1140.3125 C 91.179688 1120.066406 91.140625 1099.820312 91.121094 1079.570312 C 91.09375 1056.253906 91.027344 1032.933594 90.921875 1009.613281 C 90.84375 991.558594 90.808594 973.503906 90.800781 955.449219 C 90.792969 944.683594 90.769531 933.914062 90.707031 923.148438 C 90.644531 913 90.632812 902.851562 90.660156 892.707031 C 90.664062 889.003906 90.644531 885.300781 90.609375 881.597656 C 90.242188 841.117188 100.804688 811.484375 128.191406 781.769531 C 150.390625 760.320312 178.820312 749.433594 209.441406 749.660156 C 212.894531 749.722656 212.894531 749.722656 216.417969 749.789062 C 218.789062 749.8125 221.160156 749.835938 223.601562 749.859375 C 229.402344 749.921875 235.203125 750.003906 241.003906 750.109375 C 241.214844 748.363281 241.421875 746.613281 241.636719 744.8125 C 248.140625 694.59375 279.824219 645.710938 318.984375 614.519531 C 345.167969 594.667969 372.953125 579.195312 405.082031 571.730469 C 406.78125 571.332031 408.484375 570.929688 410.238281 570.515625 C 450.988281 562.152344 494.523438 564.5625 535.894531 564.550781 Z M 535.894531 564.550781 " fill-opacity="1" fill-rule="nonzero"/><path fill="#4141c0" d="M 271.859375 750.109375 C 271.859375 752.65625 271.859375 755.203125 271.859375 757.824219 C 273.132812 759.097656 273.132812 759.097656 274.429688 760.394531 C 275.425781 759.160156 276.425781 757.921875 277.453125 756.648438 C 283.535156 751.507812 287.613281 751.425781 295.480469 750.914062 C 297.800781 750.746094 300.117188 750.578125 302.503906 750.402344 C 304.269531 750.304688 306.035156 750.210938 307.855469 750.109375 C 309.128906 755.203125 309.128906 755.203125 310.425781 760.394531 C 298.214844 768.109375 298.214844 768.109375 292.429688 768.109375 C 288.875 772.292969 285.4375 776.574219 282.144531 780.964844 C 291.746094 780.964844 294.523438 778.304688 302.714844 773.253906 C 309.109375 769.996094 315.546875 766.835938 322 763.691406 C 328.511719 760.539062 328.511719 760.539062 334.34375 756.257812 C 343.519531 751.53125 352.21875 751.136719 362.335938 750.753906 C 364.195312 750.644531 366.058594 750.535156 367.972656 750.421875 C 381.667969 749.734375 381.667969 749.734375 387.566406 752.683594 C 392.71875 751.882812 397.859375 751.019531 402.992188 750.109375 C 407.816406 749.890625 412.644531 749.78125 417.472656 749.777344 C 421.644531 749.765625 421.644531 749.765625 425.902344 749.753906 C 428.875 749.757812 431.847656 749.765625 434.914062 749.769531 C 439.5625 749.765625 439.5625 749.765625 444.308594 749.761719 C 450.867188 749.761719 457.421875 749.765625 463.980469 749.777344 C 473.933594 749.789062 483.886719 749.777344 493.839844 749.757812 C 500.230469 749.761719 506.621094 749.765625 513.015625 749.769531 C 515.957031 749.765625 518.898438 749.757812 521.929688 749.753906 C 562.320312 749.871094 562.320312 749.871094 577.835938 752.683594 C 578.6875 754.378906 579.535156 756.078125 580.410156 757.824219 C 582.953125 757.824219 585.5 757.824219 588.121094 757.824219 C 619.28125 764.164062 640.992188 778.726562 659.375 805.332031 C 663.707031 812.820312 667.308594 819.378906 668.945312 827.921875 C 670.214844 835.390625 670.214844 835.390625 674.285156 843.421875 C 680.203125 859.097656 679.210938 875.253906 679.15625 891.796875 C 679.167969 895.445312 679.1875 899.09375 679.207031 902.738281 C 679.253906 912.601562 679.25 922.460938 679.238281 932.320312 C 679.230469 940.582031 679.246094 948.84375 679.261719 957.105469 C 679.296875 976.613281 679.292969 996.125 679.261719 1015.636719 C 679.234375 1035.691406 679.269531 1055.742188 679.339844 1075.796875 C 679.394531 1093.074219 679.414062 1110.351562 679.398438 1127.628906 C 679.390625 1137.921875 679.394531 1148.214844 679.4375 1158.507812 C 679.480469 1168.199219 679.46875 1177.894531 679.421875 1187.585938 C 679.40625 1192.785156 679.441406 1197.984375 679.480469 1203.179688 C 679.21875 1235.984375 670.941406 1263.03125 652.402344 1290.074219 C 650.917969 1292.355469 649.433594 1294.632812 647.902344 1296.984375 C 626.273438 1319.214844 595.863281 1336.050781 564.472656 1336.992188 C 560.566406 1337.015625 556.660156 1337.007812 552.753906 1336.980469 C 550.589844 1336.984375 548.429688 1336.992188 546.203125 1336.996094 C 539.066406 1337.003906 531.933594 1336.976562 524.796875 1336.949219 C 519.730469 1336.945312 514.664062 1336.945312 509.597656 1336.949219 C 496.082031 1336.949219 482.566406 1336.910156 469.050781 1336.867188 C 460.691406 1336.839844 452.332031 1336.820312 443.972656 1336.800781 C 408.691406 1336.726562 373.414062 1336.582031 338.132812 1336.394531 C 331.441406 1336.359375 324.746094 1336.328125 318.050781 1336.300781 C 297.3125 1336.210938 276.570312 1336.070312 255.832031 1335.816406 C 250.085938 1335.746094 244.34375 1335.695312 238.597656 1335.660156 C 192.066406 1335.339844 158.441406 1330.675781 122.65625 1298.199219 C 103.230469 1278.09375 91.601562 1250.585938 91.492188 1222.78125 C 91.472656 1219.523438 91.457031 1216.265625 91.4375 1212.910156 C 91.429688 1209.304688 91.421875 1205.699219 91.417969 1202.09375 C 91.398438 1198.292969 91.382812 1194.488281 91.363281 1190.6875 C 91.3125 1178.203125 91.285156 1165.71875 91.257812 1153.234375 C 91.25 1148.929688 91.238281 1144.621094 91.226562 1140.3125 C 91.179688 1120.066406 91.140625 1099.820312 91.121094 1079.570312 C 91.09375 1056.253906 91.027344 1032.933594 90.921875 1009.613281 C 90.84375 991.558594 90.808594 973.503906 90.800781 955.449219 C 90.792969 944.683594 90.769531 933.914062 90.707031 923.148438 C 90.644531 913 90.632812 902.851562 90.660156 892.707031 C 90.664062 889.003906 90.644531 885.300781 90.609375 881.597656 C 90.242188 841.117188 100.804688 811.484375 128.191406 781.769531 C 145.640625 764.824219 168.660156 752.800781 193.113281 751.867188 C 197.234375 751.707031 197.234375 751.707031 201.441406 751.542969 C 204.3125 751.441406 207.1875 751.339844 210.148438 751.234375 C 212.941406 751.125 215.738281 751.015625 218.617188 750.898438 C 236.371094 750.230469 254.089844 749.972656 271.859375 750.109375 Z M 271.859375 750.109375 " fill-opacity="1" fill-rule="nonzero"/><path fill="#6351e1" d="M 917.242188 642.117188 C 957.1875 641.878906 997.128906 641.695312 1037.074219 641.585938 C 1055.621094 641.53125 1074.171875 641.460938 1092.722656 641.34375 C 1108.90625 641.238281 1125.089844 641.171875 1141.273438 641.152344 C 1149.832031 641.136719 1158.382812 641.101562 1166.9375 641.03125 C 1235.507812 640.492188 1235.507812 640.492188 1264.359375 652.402344 C 1266.441406 653.238281 1268.523438 654.078125 1270.667969 654.9375 C 1275.667969 657.042969 1280.445312 659.371094 1285.253906 661.886719 C 1286.960938 662.761719 1288.667969 663.640625 1290.425781 664.542969 C 1344.597656 693.242188 1379.359375 738.121094 1399.832031 795.109375 C 1408.003906 821.796875 1409.121094 848.007812 1409.097656 875.71875 C 1409.113281 879.753906 1409.132812 883.792969 1409.152344 887.828125 C 1409.195312 898.71875 1409.207031 909.609375 1409.210938 920.503906 C 1409.214844 927.332031 1409.226562 934.160156 1409.238281 940.988281 C 1409.285156 964.878906 1409.308594 988.769531 1409.304688 1012.660156 C 1409.300781 1034.820312 1409.355469 1056.976562 1409.4375 1079.136719 C 1409.503906 1098.25 1409.53125 1117.363281 1409.527344 1136.480469 C 1409.527344 1147.855469 1409.539062 1159.230469 1409.59375 1170.605469 C 1409.644531 1181.324219 1409.644531 1192.039062 1409.609375 1202.757812 C 1409.601562 1206.652344 1409.613281 1210.550781 1409.644531 1214.445312 C 1410.136719 1279.542969 1387.617188 1336.652344 1342.140625 1383.441406 C 1288.816406 1435.863281 1223.527344 1445.585938 1151.671875 1445.222656 C 1145.5625 1445.222656 1139.453125 1445.222656 1133.339844 1445.226562 C 1116.859375 1445.230469 1100.378906 1445.183594 1083.894531 1445.128906 C 1068.382812 1445.085938 1052.871094 1445.078125 1037.359375 1445.070312 C 1006.664062 1445.054688 975.96875 1445.003906 945.273438 1444.929688 C 915.480469 1444.859375 885.691406 1444.804688 855.898438 1444.773438 C 854.058594 1444.769531 852.214844 1444.769531 850.320312 1444.765625 C 841.082031 1444.757812 831.847656 1444.746094 822.613281 1444.738281 C 746.164062 1444.65625 669.714844 1444.519531 593.265625 1444.347656 C 593.265625 1443.5 593.265625 1442.652344 593.265625 1441.777344 C 701.898438 1439.011719 810.488281 1438.882812 919.152344 1439.019531 C 942.570312 1439.050781 965.992188 1439.0625 989.414062 1439.078125 C 1037.351562 1439.101562 1085.289062 1439.148438 1133.226562 1439.207031 C 1130.777344 1438.339844 1128.328125 1437.476562 1125.804688 1436.585938 C 1122.546875 1435.429688 1119.289062 1434.273438 1116.03125 1433.121094 C 1112.839844 1431.988281 1109.648438 1430.859375 1106.359375 1429.695312 C 1057.5625 1411.8125 1020.109375 1375.90625 994.378906 1331.214844 C 993.191406 1329.15625 992 1327.097656 990.773438 1324.976562 C 975.640625 1296.871094 968.253906 1265.464844 968.328125 1233.675781 C 968.320312 1230.664062 968.320312 1230.664062 968.3125 1227.589844 C 968.296875 1220.878906 968.300781 1214.171875 968.300781 1207.464844 C 968.292969 1202.644531 968.285156 1197.824219 968.277344 1193.003906 C 968.253906 1182.628906 968.242188 1172.253906 968.234375 1161.878906 C 968.21875 1145.4375 968.175781 1128.996094 968.128906 1112.554688 C 968.109375 1106.914062 968.09375 1101.277344 968.078125 1095.636719 C 968.070312 1092.8125 968.0625 1089.992188 968.054688 1087.082031 C 967.945312 1048.820312 967.859375 1010.558594 967.828125 972.296875 C 967.808594 946.46875 967.75 920.644531 967.652344 894.816406 C 967.601562 881.171875 967.566406 867.527344 967.582031 853.878906 C 967.59375 841.015625 967.558594 828.152344 967.484375 815.289062 C 967.46875 810.601562 967.46875 805.914062 967.488281 801.226562 C 967.625 762.945312 963.578125 725.65625 946.007812 690.972656 C 945.136719 689.171875 944.261719 687.371094 943.363281 685.519531 C 937.070312 672.957031 929.746094 661.882812 920.457031 651.289062 C 917.242188 647.261719 917.242188 647.261719 917.242188 642.117188 Z M 917.242188 642.117188 " fill-opacity="1" fill-rule="nonzero"/><path fill="#988bf9" d="M 735.96875 98.140625 C 740.746094 101.972656 745.464844 105.878906 750.109375 109.871094 C 752.132812 111.601562 754.15625 113.335938 756.238281 115.121094 C 798.375 154.25 821.277344 209.671875 824.492188 266.492188 C 826.589844 325.679688 804.960938 381.707031 765.921875 425.644531 C 727.445312 466.742188 672.851562 492.996094 616.40625 495.558594 C 614.699219 495.660156 612.992188 495.761719 611.234375 495.867188 C 551.558594 497.742188 496.6875 474.738281 452.667969 435.402344 C 413.328125 398.1875 386.609375 347.515625 384.179688 292.910156 C 382.839844 243.195312 391.28125 204.597656 415.847656 161.296875 C 417.089844 159.105469 418.335938 156.914062 419.613281 154.65625 C 449.621094 106.386719 498.015625 74.042969 552.535156 59.707031 C 616.90625 44.945312 682.835938 59.570312 735.96875 98.140625 Z M 735.96875 98.140625 " fill-opacity="1" fill-rule="nonzero"/><path fill="#6866f1" d="M 1261.789062 235.859375 C 1298.710938 262.945312 1325.015625 306.757812 1333.785156 351.566406 C 1334.851562 362.628906 1335.011719 373.566406 1334.910156 384.671875 C 1334.886719 387.625 1334.867188 390.578125 1334.84375 393.617188 C 1334.421875 414.90625 1332.449219 432.324219 1323.5 451.847656 C 1322.28125 454.78125 1321.058594 457.714844 1319.804688 460.734375 C 1309.246094 484.160156 1295.464844 500.929688 1277.21875 518.699219 C 1275.4375 520.472656 1273.65625 522.246094 1271.824219 524.070312 C 1236.347656 557.363281 1188.082031 569.375 1140.738281 568.347656 C 1090.035156 565.964844 1046.257812 541.613281 1011.734375 505.039062 C 977.027344 463.945312 964.867188 414.617188 968.667969 361.851562 C 975.386719 311.410156 1003.257812 266.878906 1043.234375 235.859375 C 1110.351562 188.675781 1194.832031 190.460938 1261.789062 235.859375 Z M 1261.789062 235.859375 " fill-opacity="1" fill-rule="nonzero"/><path fill="#7e79f7" d="M 1261.789062 235.859375 C 1298.710938 262.945312 1325.015625 306.757812 1333.785156 351.566406 C 1334.851562 362.628906 1335.007812 373.566406 1334.910156 384.671875 C 1334.890625 389.074219 1334.890625 389.074219 1334.875 393.566406 C 1334.503906 414.699219 1332.117188 432.378906 1323.5 451.847656 C 1321.78125 456.128906 1320.066406 460.414062 1318.355469 464.703125 C 1316.660156 461.308594 1314.964844 457.914062 1313.214844 454.417969 C 1314.910156 453.570312 1316.609375 452.71875 1318.355469 451.847656 C 1317.507812 448.453125 1316.660156 445.058594 1315.785156 441.5625 C 1312.390625 442.410156 1308.996094 443.257812 1305.5 444.132812 C 1305.5 441.585938 1305.5 439.042969 1305.5 436.417969 C 1303.804688 436.417969 1302.105469 436.417969 1300.359375 436.417969 C 1299.511719 432.175781 1298.660156 427.933594 1297.789062 423.5625 C 1294.394531 423.5625 1291 423.5625 1287.503906 423.5625 C 1282.359375 415.847656 1282.359375 415.847656 1282.359375 410.707031 C 1280.664062 409.859375 1278.964844 409.007812 1277.21875 408.136719 C 1278.914062 403.042969 1280.613281 397.953125 1282.359375 392.707031 C 1279.8125 392.707031 1277.269531 392.707031 1274.644531 392.707031 C 1270.949219 388.367188 1270.949219 388.367188 1266.933594 382.421875 C 1265.128906 380.355469 1263.324219 378.285156 1261.46875 376.15625 C 1256.648438 369.566406 1256.648438 369.566406 1255.523438 362.65625 C 1254.804688 359.710938 1254.804688 359.710938 1254.074219 356.710938 C 1249.796875 354.976562 1245.511719 353.265625 1241.21875 351.566406 C 1235.757812 344.015625 1235.757812 344.015625 1230.933594 336.140625 C 1229.03125 334.296875 1229.03125 334.296875 1227.089844 332.414062 C 1222.816406 328.007812 1220.765625 324.03125 1218.238281 318.460938 C 1214 309.605469 1209.066406 302.484375 1202.652344 295 C 1200.953125 292.453125 1199.257812 289.910156 1197.507812 287.285156 C 1193.691406 284.742188 1193.691406 284.742188 1189.792969 282.144531 C 1191.066406 278.324219 1191.066406 278.324219 1192.367188 274.429688 C 1182.75 275.980469 1175.019531 278.726562 1166.332031 283.109375 C 1164.152344 284.1875 1161.96875 285.269531 1159.722656 286.382812 C 1154.089844 289.6875 1150.109375 292.441406 1146.082031 297.570312 C 1146.082031 300.117188 1146.082031 302.664062 1146.082031 305.285156 C 1143.03125 310.75 1143.03125 310.75 1138.371094 315.570312 C 1136.40625 315.941406 1134.445312 316.3125 1132.425781 316.695312 C 1124.78125 317.730469 1124.78125 317.730469 1117.800781 324.570312 C 1110.085938 330.996094 1110.085938 330.996094 1103.820312 332.121094 C 1094.8125 334.097656 1090.324219 339.203125 1083.628906 345.332031 C 1078.3125 349.761719 1072.863281 351.847656 1066.375 354.140625 C 1065.101562 356.683594 1065.101562 356.683594 1063.804688 359.28125 C 1062.105469 360.976562 1060.410156 362.675781 1058.660156 364.421875 C 1058.660156 367.816406 1058.660156 371.210938 1058.660156 374.707031 C 1057.316406 382.324219 1056.578125 384.507812 1050.949219 390.136719 C 1050.949219 387.589844 1050.949219 385.046875 1050.949219 382.421875 C 1047.128906 381.148438 1047.128906 381.148438 1043.234375 379.851562 C 1043.234375 378.152344 1043.234375 376.457031 1043.234375 374.707031 C 1041.324219 375.292969 1039.414062 375.875 1037.449219 376.476562 C 1028.410156 377.503906 1027.035156 375.035156 1020.09375 369.566406 C 1012.132812 367.777344 1005.105469 366.996094 996.949219 366.996094 C 994.566406 365.644531 994.566406 365.644531 992.128906 364.261719 C 985.644531 360.773438 985.644531 360.773438 973.808594 364.421875 C 972.960938 379.695312 972.113281 394.96875 971.238281 410.707031 C 970.390625 410.707031 969.542969 410.707031 968.667969 410.707031 C 966.355469 351.632812 978.058594 305.09375 1017.519531 259.003906 C 1083.449219 190.554688 1184.429688 183.40625 1261.789062 235.859375 Z M 1269.503906 377.28125 C 1272.074219 382.421875 1272.074219 382.421875 1272.074219 382.421875 Z M 1269.503906 377.28125 " fill-opacity="1" fill-rule="nonzero"/><path fill="#fafafd" d="M 259.003906 876.101562 C 343.003906 876.101562 427.007812 876.101562 513.554688 876.101562 C 513.554688 896.464844 513.554688 916.832031 513.554688 937.8125 C 483.859375 937.8125 454.160156 937.8125 423.5625 937.8125 C 423.5625 1027.753906 423.5625 1117.695312 423.5625 1210.363281 C 398.105469 1210.363281 372.652344 1210.363281 346.425781 1210.363281 C 346.425781 1119.574219 346.425781 1028.785156 346.425781 935.242188 C 317.574219 935.242188 288.726562 935.242188 259.003906 935.242188 C 259.003906 915.726562 259.003906 896.210938 259.003906 876.101562 Z M 259.003906 876.101562 " fill-opacity="1" fill-rule="nonzero"/><path fill="#6f66e4" d="M 788.679688 372.136719 C 791.226562 372.984375 793.769531 373.835938 796.394531 374.707031 C 794.234375 391.621094 783.5 402.792969 773.253906 415.847656 C 771.710938 417.855469 770.171875 419.859375 768.582031 421.925781 C 733.851562 464.15625 680.179688 488.039062 626.851562 494.914062 C 623.375 495.183594 619.890625 495.398438 616.40625 495.558594 C 613.847656 495.710938 613.847656 495.710938 611.234375 495.867188 C 551.78125 497.738281 495.761719 474.972656 452.398438 434.953125 C 438.40625 421.59375 424.503906 407.667969 415.847656 390.136719 C 415.847656 387.589844 415.847656 385.046875 415.847656 382.421875 C 422.296875 378.46875 426.769531 376.863281 434.257812 378.476562 C 440.207031 380.472656 446.027344 382.652344 451.847656 384.992188 C 455.265625 386.265625 455.265625 386.265625 458.757812 387.566406 C 463.441406 389.589844 468.03125 391.835938 472.578125 394.152344 C 479.585938 397.917969 479.585938 397.917969 485.433594 399.136719 C 490.414062 400.421875 490.414062 400.421875 497.164062 404.597656 C 499.179688 405.765625 501.195312 406.933594 503.269531 408.136719 C 504.96875 407.285156 506.664062 406.4375 508.414062 405.5625 C 508.414062 407.261719 508.414062 408.957031 508.414062 410.707031 C 511.992188 410.546875 511.992188 410.546875 515.644531 410.386719 C 523.839844 410.707031 523.839844 410.707031 531.554688 415.847656 C 534.101562 415.847656 536.644531 415.847656 539.269531 415.847656 C 548.269531 418.421875 548.269531 418.421875 557.265625 420.992188 C 559.8125 420.992188 562.359375 420.992188 564.980469 420.992188 C 568.738281 417.042969 568.738281 417.042969 571.890625 411.992188 C 573.015625 410.320312 574.140625 408.652344 575.296875 406.929688 C 576.136719 405.628906 576.972656 404.332031 577.835938 402.992188 C 572.746094 405.539062 572.746094 405.539062 567.550781 408.136719 C 567.550781 404.742188 567.550781 401.347656 567.550781 397.851562 C 598.261719 397.246094 598.261719 397.246094 608.371094 403.3125 C 616.566406 406.6875 623.289062 404.574219 631.832031 402.992188 C 633.53125 402.992188 635.226562 402.992188 636.976562 402.992188 C 637.824219 401.296875 638.671875 399.597656 639.546875 397.851562 C 637.003906 395.304688 637.003906 395.304688 634.40625 392.707031 C 631.859375 392.707031 629.3125 392.707031 626.691406 392.707031 C 627.539062 391.011719 628.386719 389.3125 629.261719 387.566406 C 630.960938 387.566406 632.65625 387.566406 634.40625 387.566406 C 635.253906 385.867188 636.101562 384.171875 636.976562 382.421875 C 639.523438 384.121094 642.066406 385.816406 644.691406 387.566406 C 648.125 386.730469 651.554688 385.875 654.976562 384.992188 C 657.519531 387.539062 657.519531 387.539062 660.117188 390.136719 C 662.664062 390.136719 665.207031 390.136719 667.832031 390.136719 C 680.6875 390.136719 680.6875 390.136719 685.828125 392.707031 C 688.296875 392.070312 688.296875 392.070312 690.8125 391.421875 C 696.113281 390.136719 696.113281 390.136719 703.828125 392.707031 C 705.527344 391.859375 707.222656 391.011719 708.972656 390.136719 C 711.515625 390.984375 714.0625 391.832031 716.683594 392.707031 C 720.121094 391.875 723.546875 391.019531 726.96875 390.136719 C 729.515625 391.410156 729.515625 391.410156 732.113281 392.707031 C 736.40625 391.011719 740.691406 389.296875 744.96875 387.566406 C 748.363281 387.566406 751.757812 387.566406 755.253906 387.566406 C 757.800781 385.867188 760.34375 384.171875 762.96875 382.421875 C 765.992188 383.296875 765.992188 383.296875 769.074219 384.191406 C 771.300781 384.457031 773.527344 384.71875 775.824219 384.992188 C 783.109375 378.992188 783.109375 378.992188 788.679688 372.136719 Z M 760.394531 387.566406 C 761.246094 389.261719 762.09375 390.960938 762.96875 392.707031 C 763.816406 391.011719 764.664062 389.3125 765.539062 387.566406 C 763.839844 387.566406 762.144531 387.566406 760.394531 387.566406 Z M 760.394531 387.566406 " fill-opacity="1" fill-rule="nonzero"/><path fill="#7883f7" d="M 1123.265625 204.363281 C 1125.496094 204.296875 1127.730469 204.230469 1130.035156 204.164062 C 1132.886719 204.582031 1132.886719 204.582031 1135.796875 205.007812 C 1138.34375 208.824219 1138.34375 208.824219 1140.941406 212.71875 C 1141.789062 211.023438 1142.636719 209.324219 1143.511719 207.578125 C 1146.058594 208.425781 1148.601562 209.273438 1151.226562 210.148438 C 1151.226562 212.695312 1151.226562 215.238281 1151.226562 217.863281 C 1149.527344 217.863281 1147.832031 217.863281 1146.082031 217.863281 C 1145.339844 220.089844 1144.597656 222.316406 1143.832031 224.613281 C 1142.402344 228.90625 1142.402344 228.90625 1140.941406 233.289062 C 1139.746094 236.949219 1139.746094 236.949219 1138.53125 240.683594 C 1136.390625 246.976562 1134.214844 253.238281 1131.941406 259.484375 C 1131.332031 261.164062 1130.722656 262.84375 1130.09375 264.578125 C 1128.085938 269.289062 1128.085938 269.289062 1122.941406 277 C 1120.398438 277.851562 1117.851562 278.699219 1115.230469 279.574219 C 1118.621094 279.574219 1122.015625 279.574219 1125.511719 279.574219 C 1127.210938 277.875 1128.90625 276.179688 1130.65625 274.429688 C 1135.796875 269.289062 1135.796875 269.289062 1143.511719 266.714844 C 1144.785156 269.261719 1144.785156 269.261719 1146.082031 271.859375 C 1143.511719 276.144531 1140.941406 280.429688 1138.371094 284.714844 C 1139.640625 287.261719 1139.640625 287.261719 1140.941406 289.859375 C 1136.054688 294.132812 1131.167969 298.40625 1126.265625 302.664062 C 1122.425781 306.046875 1118.625 309.480469 1114.878906 312.96875 C 1113.136719 314.570312 1111.398438 316.171875 1109.605469 317.820312 C 1108.03125 319.296875 1106.457031 320.777344 1104.832031 322.300781 C 1098.914062 326.484375 1094.066406 327.464844 1086.945312 328.425781 C 1086.945312 330.125 1086.945312 331.820312 1086.945312 333.570312 C 1084.398438 334.417969 1081.855469 335.265625 1079.230469 336.140625 C 1076.335938 339.03125 1073.472656 341.957031 1070.714844 344.980469 C 1065.414062 349.886719 1059.785156 353.128906 1053.519531 356.710938 C 1051.609375 358.035156 1049.699219 359.363281 1047.734375 360.726562 C 1034.078125 367.867188 1019.707031 371.417969 1004.664062 366.996094 C 1002.121094 366.996094 999.574219 366.996094 996.949219 366.996094 C 994.566406 365.644531 994.566406 365.644531 992.128906 364.261719 C 985.644531 360.773438 985.644531 360.773438 973.808594 364.421875 C 972.960938 379.695312 972.113281 394.96875 971.238281 410.707031 C 970.390625 410.707031 969.542969 410.707031 968.667969 410.707031 C 966.355469 351.632812 978.058594 305.09375 1017.519531 259.003906 C 1044.386719 231.109375 1083.28125 205.078125 1123.265625 204.363281 Z M 1123.265625 204.363281 " fill-opacity="1" fill-rule="nonzero"/><path fill="#574edc" d="M 986.667969 441.5625 C 1008.296875 449.132812 1008.296875 449.132812 1017.519531 456.988281 C 1020.066406 458.6875 1022.613281 460.382812 1025.234375 462.132812 C 1027.832031 463.882812 1030.433594 465.632812 1033.109375 467.433594 C 1041.210938 472.964844 1041.210938 472.964844 1050.304688 475.789062 C 1056.089844 477.558594 1056.089844 477.558594 1063.480469 482.539062 C 1076.386719 491.058594 1089.847656 493.789062 1104.8125 496.683594 C 1110.085938 498.128906 1110.085938 498.128906 1117.800781 503.269531 C 1123.246094 503.796875 1123.246094 503.796875 1129.050781 503.433594 C 1137.792969 503.234375 1145.246094 503.867188 1153.796875 505.84375 C 1165.835938 507.894531 1175.226562 508.476562 1187.222656 505.84375 C 1193.109375 505.746094 1198.976562 505.84375 1204.859375 505.933594 C 1210.667969 506.007812 1210.667969 506.007812 1217.4375 504.394531 C 1223.222656 503.269531 1223.222656 503.269531 1229.328125 504.71875 C 1238.597656 506.261719 1245.253906 503.640625 1254.074219 500.699219 C 1261.789062 498.128906 1261.789062 498.128906 1269.503906 498.128906 C 1273.554688 496.953125 1277.570312 495.65625 1281.554688 494.273438 C 1283.632812 493.554688 1285.710938 492.839844 1287.855469 492.101562 C 1289.433594 491.546875 1291.015625 490.988281 1292.644531 490.414062 C 1289.4375 511.960938 1274.472656 523.800781 1257.8125 536.578125 C 1216.925781 564.398438 1165.582031 574.316406 1117.035156 565.875 C 1067.597656 555.511719 1025.386719 526.992188 996.832031 485.300781 C 981.230469 460.246094 981.230469 460.246094 984.09375 444.132812 C 984.941406 443.285156 985.792969 442.433594 986.667969 441.5625 Z M 986.667969 441.5625 " fill-opacity="1" fill-rule="nonzero"/><path fill="#9ba6fe" d="M 498.128906 81.585938 C 499.824219 82.433594 501.523438 83.285156 503.269531 84.15625 C 502.636719 85.589844 502 87.019531 501.34375 88.496094 C 499.972656 95.0625 499.972656 95.0625 505.683594 101.511719 C 508.308594 104.378906 508.308594 104.378906 510.984375 107.296875 C 508.4375 108.148438 505.894531 108.996094 503.269531 109.871094 C 502.421875 111.566406 501.574219 113.265625 500.699219 115.011719 C 502.398438 115.859375 504.09375 116.710938 505.84375 117.582031 C 504.144531 117.582031 502.449219 117.582031 500.699219 117.582031 C 500.699219 119.28125 500.699219 120.976562 500.699219 122.726562 C 499.003906 122.726562 497.304688 122.726562 495.558594 122.726562 C 496.832031 126.542969 496.832031 126.542969 498.128906 130.441406 C 497.394531 134.746094 496.539062 139.039062 495.558594 143.296875 C 495.558594 144.992188 495.558594 146.691406 495.558594 148.4375 C 493.859375 148.4375 492.164062 148.4375 490.414062 148.4375 C 491.6875 152.257812 491.6875 152.257812 492.984375 156.152344 C 490.390625 163 486.570312 168.273438 482.378906 174.3125 C 476.867188 181.457031 476.867188 181.457031 477.558594 189.578125 C 474.1875 193.0625 470.753906 196.488281 467.273438 199.863281 C 465.519531 203.269531 463.800781 206.699219 462.132812 210.148438 C 457.953125 214.648438 457.953125 214.648438 454.417969 217.863281 C 456.113281 222.105469 457.8125 226.347656 459.558594 230.71875 C 462.105469 230.71875 464.652344 230.71875 467.273438 230.71875 C 474.988281 230.71875 474.988281 230.71875 482.703125 233.289062 C 485.246094 232.441406 487.792969 231.59375 490.414062 230.71875 C 489.566406 233.265625 488.71875 235.808594 487.84375 238.433594 C 494.207031 237.160156 494.207031 237.160156 500.699219 235.859375 C 500.699219 238.40625 500.699219 240.953125 500.699219 243.574219 C 498.15625 244.847656 498.15625 244.847656 495.558594 246.144531 C 494.707031 247.84375 493.859375 249.539062 492.984375 251.289062 C 492.136719 249.589844 491.289062 247.894531 490.414062 246.144531 C 482.398438 247.808594 482.398438 247.808594 480.128906 253.859375 C 478.433594 253.859375 476.734375 253.859375 474.988281 253.859375 C 474.988281 255.558594 474.988281 257.253906 474.988281 259.003906 C 473.449219 259.269531 471.910156 259.53125 470.328125 259.804688 C 463.976562 261.800781 461.300781 264.328125 456.988281 269.289062 C 455.292969 268.4375 453.59375 267.589844 451.847656 266.714844 C 450.996094 269.261719 450.148438 271.808594 449.273438 274.429688 C 442.640625 280.402344 440.398438 282.144531 431.277344 282.144531 C 430.425781 284.6875 429.578125 287.234375 428.703125 289.859375 C 420.992188 289.859375 420.992188 289.859375 415.847656 287.285156 C 413.886719 288.242188 411.925781 289.195312 409.902344 290.179688 C 407.621094 290.921875 405.34375 291.664062 402.992188 292.429688 C 398.75 289.882812 394.507812 287.335938 390.136719 284.714844 C 390.136719 297.441406 390.136719 310.171875 390.136719 323.285156 C 389.289062 323.285156 388.4375 323.285156 387.566406 323.285156 C 375.363281 265.953125 387.507812 211.25 415.847656 161.296875 C 417.089844 159.105469 418.335938 156.914062 419.613281 154.65625 C 438.582031 124.140625 465.878906 97.710938 498.128906 81.585938 Z M 498.128906 81.585938 " fill-opacity="1" fill-rule="nonzero"/><path fill="#8576ec" d="M 788.679688 372.136719 C 791.226562 372.984375 793.769531 373.835938 796.394531 374.707031 C 793.300781 398.914062 769.847656 422.582031 752.683594 438.988281 C 743.746094 444.378906 743.746094 444.378906 737.09375 443.167969 C 735.449219 442.636719 733.804688 442.109375 732.113281 441.5625 C 727.078125 441.5625 722.039062 441.613281 717.007812 441.722656 C 708.972656 441.5625 708.972656 441.5625 702.0625 439.953125 C 695.425781 438.1875 695.425781 438.1875 688.402344 444.132812 C 683.21875 442.546875 678.070312 440.832031 672.972656 438.988281 C 670.429688 440.261719 670.429688 440.261719 667.832031 441.5625 C 666.132812 439.863281 664.4375 438.167969 662.6875 436.417969 C 660.144531 436.417969 657.597656 436.417969 654.976562 436.417969 C 613.0625 436.417969 613.0625 436.417969 593.425781 432.242188 C 587.640625 430.75 587.640625 430.75 580.410156 433.847656 C 578.710938 432.152344 577.015625 430.453125 575.265625 428.703125 C 572.722656 428.703125 570.175781 428.703125 567.550781 428.703125 C 566.703125 426.160156 565.855469 423.613281 564.980469 420.992188 C 567.542969 416.300781 567.542969 416.300781 571.25 411.507812 C 572.464844 409.910156 573.679688 408.308594 574.933594 406.660156 C 575.894531 405.449219 576.851562 404.238281 577.835938 402.992188 C 572.746094 405.539062 572.746094 405.539062 567.550781 408.136719 C 567.550781 404.742188 567.550781 401.347656 567.550781 397.851562 C 598.261719 397.246094 598.261719 397.246094 608.371094 403.3125 C 616.566406 406.6875 623.289062 404.574219 631.832031 402.992188 C 633.53125 402.992188 635.226562 402.992188 636.976562 402.992188 C 637.824219 401.296875 638.671875 399.597656 639.546875 397.851562 C 637.851562 396.152344 636.152344 394.457031 634.40625 392.707031 C 631.859375 392.707031 629.3125 392.707031 626.691406 392.707031 C 627.539062 391.011719 628.386719 389.3125 629.261719 387.566406 C 630.960938 387.566406 632.65625 387.566406 634.40625 387.566406 C 635.253906 385.867188 636.101562 384.171875 636.976562 382.421875 C 639.523438 384.121094 642.066406 385.816406 644.691406 387.566406 C 648.125 386.730469 651.554688 385.875 654.976562 384.992188 C 656.671875 386.691406 658.367188 388.386719 660.117188 390.136719 C 662.664062 390.136719 665.207031 390.136719 667.832031 390.136719 C 680.6875 390.136719 680.6875 390.136719 685.828125 392.707031 C 688.296875 392.070312 688.296875 392.070312 690.8125 391.421875 C 696.113281 390.136719 696.113281 390.136719 703.828125 392.707031 C 705.527344 391.859375 707.222656 391.011719 708.972656 390.136719 C 711.515625 390.984375 714.0625 391.832031 716.683594 392.707031 C 720.121094 391.875 723.546875 391.019531 726.96875 390.136719 C 729.515625 391.410156 729.515625 391.410156 732.113281 392.707031 C 736.40625 391.011719 740.691406 389.296875 744.96875 387.566406 C 748.363281 387.566406 751.757812 387.566406 755.253906 387.566406 C 757.800781 385.867188 760.34375 384.171875 762.96875 382.421875 C 765.992188 383.296875 765.992188 383.296875 769.074219 384.191406 C 771.300781 384.457031 773.527344 384.71875 775.824219 384.992188 C 783.109375 378.992188 783.109375 378.992188 788.679688 372.136719 Z M 760.394531 387.566406 C 761.246094 389.261719 762.09375 390.960938 762.96875 392.707031 C 763.816406 391.011719 764.664062 389.3125 765.539062 387.566406 C 763.839844 387.566406 762.144531 387.566406 760.394531 387.566406 Z M 760.394531 387.566406 " fill-opacity="1" fill-rule="nonzero"/><path fill="#8683f8" d="M 495.558594 307.855469 C 498.953125 311.25 502.34375 314.644531 505.84375 318.140625 C 503.296875 320.6875 500.75 323.230469 498.128906 325.855469 C 499.71875 326.597656 501.3125 327.339844 502.949219 328.105469 C 508.414062 330.996094 508.414062 330.996094 513.554688 336.140625 C 515.253906 335.292969 516.949219 334.441406 518.699219 333.570312 C 520.394531 335.265625 522.09375 336.960938 523.839844 338.710938 C 526.386719 338.710938 528.933594 338.710938 531.554688 338.710938 C 537.179688 342.566406 537.179688 342.566406 541.839844 346.425781 C 543.535156 345.578125 545.234375 344.726562 546.984375 343.855469 C 549.105469 344.648438 551.226562 345.445312 553.410156 346.265625 C 564.941406 349.765625 576.160156 350.832031 588.121094 348.996094 C 594.347656 345.125 597.691406 342.714844 600.980469 336.140625 C 606.070312 336.140625 611.160156 336.140625 616.40625 336.140625 C 617.148438 338.050781 617.890625 339.957031 618.65625 341.925781 C 623.660156 354.199219 623.660156 354.199219 631.832031 364.421875 C 626.691406 372.136719 626.691406 372.136719 621.6875 373.453125 C 619.839844 373.601562 617.992188 373.75 616.085938 373.90625 C 612.796875 374.171875 609.507812 374.433594 606.121094 374.707031 C 606.121094 376.40625 606.121094 378.101562 606.121094 379.851562 C 603.574219 379.851562 601.03125 379.851562 598.40625 379.851562 C 599.257812 376.457031 600.105469 373.0625 600.980469 369.566406 C 599.441406 370.414062 597.902344 371.261719 596.316406 372.136719 C 590.695312 374.707031 590.695312 374.707031 582.980469 374.707031 C 576.105469 379.695312 576.105469 379.695312 570.125 384.992188 C 567.578125 382.449219 567.578125 382.449219 564.980469 379.851562 C 562.515625 380.488281 562.515625 380.488281 560 381.136719 C 557.375 381.773438 557.375 381.773438 554.695312 382.421875 C 552.152344 380.726562 549.605469 379.027344 546.984375 377.28125 C 541.445312 378.074219 541.445312 378.074219 536.699219 379.851562 C 535 377.304688 533.304688 374.761719 531.554688 372.136719 C 525.34375 370.085938 525.34375 370.085938 518.378906 369.085938 C 514.867188 368.472656 514.867188 368.472656 511.285156 367.847656 C 508.589844 367.425781 508.589844 367.425781 505.84375 366.996094 C 504.570312 363.175781 504.570312 363.175781 503.269531 359.28125 C 501.574219 358.433594 499.878906 357.585938 498.128906 356.710938 C 497.28125 358.40625 496.433594 360.105469 495.558594 361.851562 C 494.25 360.679688 492.945312 359.503906 491.601562 358.296875 C 486.214844 353.800781 481.128906 349.832031 474.988281 346.425781 C 466.757812 347.882812 466.757812 347.882812 459.558594 351.566406 C 455.265625 350.75 450.980469 349.898438 446.703125 348.996094 C 438.007812 351.367188 436.191406 354.484375 431.117188 362.175781 C 429.472656 364.613281 427.828125 367.054688 426.132812 369.566406 C 423.589844 369.566406 421.042969 369.566406 418.421875 369.566406 C 417.570312 371.261719 416.722656 372.960938 415.847656 374.707031 C 411.066406 374.097656 411.066406 374.097656 405.5625 372.136719 C 397.589844 360.445312 393.832031 347.6875 395.277344 333.570312 C 407.984375 326.792969 414.027344 325.21875 428.382812 327.300781 C 436.867188 328.421875 443.492188 328.003906 451.847656 325.855469 C 456.132812 325.855469 460.417969 325.855469 464.703125 325.855469 C 468.597656 324.226562 472.449219 322.5 476.273438 320.710938 C 487.273438 315.570312 487.273438 315.570312 492.984375 315.570312 C 493.835938 313.023438 494.683594 310.480469 495.558594 307.855469 Z M 495.558594 307.855469 " fill-opacity="1" fill-rule="nonzero"/><path fill="#9b81fe" d="M 1323.5 688.402344 C 1359.128906 708.519531 1380.558594 746.648438 1395.496094 783.539062 C 1396.472656 785.796875 1397.449219 788.058594 1398.457031 790.386719 C 1400.902344 797.121094 1400.515625 800.066406 1398.066406 806.679688 C 1397.21875 806.679688 1396.367188 806.679688 1395.496094 806.679688 C 1391.09375 811.871094 1386.84375 817.175781 1382.597656 822.496094 C 1376.628906 828.058594 1372.636719 828.953125 1364.640625 829.820312 C 1362.941406 827.273438 1361.246094 824.730469 1359.496094 822.105469 C 1356.953125 822.105469 1354.40625 822.105469 1351.785156 822.105469 C 1351.042969 820.515625 1350.296875 818.925781 1349.535156 817.285156 C 1346.800781 811.480469 1346.800781 811.480469 1341.5 806.679688 C 1330.9375 789.183594 1328.496094 772.78125 1326.070312 752.683594 C 1325.566406 749.035156 1325.050781 745.390625 1324.535156 741.746094 C 1324.027344 738.050781 1323.519531 734.359375 1323.019531 730.667969 C 1322.769531 728.921875 1322.523438 727.175781 1322.269531 725.378906 C 1321.132812 716.59375 1320.871094 709.71875 1323.5 701.257812 C 1322.710938 697.8125 1321.867188 694.378906 1320.929688 690.972656 C 1321.777344 690.125 1322.625 689.277344 1323.5 688.402344 Z M 1323.5 688.402344 " fill-opacity="1" fill-rule="nonzero"/><path fill="#7c70ea" d="M 567.550781 397.851562 C 571.25 397.78125 574.945312 397.730469 578.640625 397.6875 C 581.726562 397.644531 581.726562 397.644531 584.878906 397.597656 C 590.695312 397.851562 590.695312 397.851562 598.40625 400.421875 C 599.257812 402.964844 600.105469 405.511719 600.980469 408.136719 C 607.765625 408.984375 614.554688 409.832031 621.546875 410.707031 C 622.398438 414.101562 623.246094 417.496094 624.121094 420.992188 C 626.664062 417.597656 629.210938 414.203125 631.832031 410.707031 C 633.796875 411.183594 635.757812 411.660156 637.78125 412.152344 C 644.921875 413.863281 644.921875 413.863281 652.402344 410.707031 C 654.101562 412.402344 655.796875 414.101562 657.546875 415.847656 C 659.242188 415 660.941406 414.152344 662.6875 413.277344 C 665.339844 413.753906 667.992188 414.230469 670.722656 414.722656 C 679.6875 415.734375 683.25 415.539062 691.453125 413.117188 C 702.222656 410.46875 702.644531 410.96875 711.542969 415.847656 C 717.554688 415.097656 723.558594 414.238281 729.542969 413.277344 C 735.328125 414.402344 735.328125 414.402344 739.828125 415.847656 C 742.371094 415.847656 744.917969 415.847656 747.539062 415.847656 C 753.164062 419.707031 753.164062 419.707031 757.824219 423.5625 C 757.34375 429.507812 757.34375 429.507812 755.253906 436.417969 C 749.308594 441.238281 749.308594 441.238281 742.398438 444.132812 C 736.933594 443.328125 736.933594 443.328125 732.113281 441.5625 C 727.078125 441.5625 722.039062 441.613281 717.007812 441.722656 C 708.972656 441.5625 708.972656 441.5625 702.0625 439.953125 C 695.425781 438.1875 695.425781 438.1875 688.402344 444.132812 C 683.21875 442.546875 678.070312 440.832031 672.972656 438.988281 C 670.429688 440.261719 670.429688 440.261719 667.832031 441.5625 C 666.132812 439.863281 664.4375 438.167969 662.6875 436.417969 C 660.144531 436.417969 657.597656 436.417969 654.976562 436.417969 C 613.0625 436.417969 613.0625 436.417969 593.425781 432.242188 C 587.640625 430.75 587.640625 430.75 580.410156 433.847656 C 578.710938 432.152344 577.015625 430.453125 575.265625 428.703125 C 572.71875 428.703125 570.175781 428.703125 567.550781 428.703125 C 566.703125 426.160156 565.855469 423.613281 564.980469 420.992188 C 567.542969 416.300781 567.542969 416.300781 571.25 411.507812 C 572.464844 409.910156 573.679688 408.308594 574.933594 406.660156 C 575.894531 405.449219 576.851562 404.238281 577.835938 402.992188 C 572.746094 405.539062 572.746094 405.539062 567.550781 408.136719 C 567.550781 404.742188 567.550781 401.347656 567.550781 397.851562 Z M 567.550781 397.851562 " fill-opacity="1" fill-rule="nonzero"/><path fill="#7770f2" d="M 1315.785156 354.140625 C 1318.332031 354.140625 1320.878906 354.140625 1323.5 354.140625 C 1325.214844 357.566406 1326.929688 360.996094 1328.640625 364.421875 C 1329.53125 365.820312 1330.417969 367.214844 1331.335938 368.652344 C 1334.859375 377.359375 1334.765625 385.863281 1334.75 395.117188 C 1334.75 398.011719 1334.75 398.011719 1334.746094 400.964844 C 1334.285156 423.867188 1326.871094 443.683594 1318.355469 464.703125 C 1316.660156 461.308594 1314.964844 457.914062 1313.214844 454.417969 C 1315.761719 453.144531 1315.761719 453.144531 1318.355469 451.847656 C 1317.507812 448.453125 1316.660156 445.058594 1315.785156 441.5625 C 1310.695312 442.832031 1310.695312 442.832031 1305.5 444.132812 C 1305.5 441.585938 1305.5 439.042969 1305.5 436.417969 C 1303.804688 436.417969 1302.105469 436.417969 1300.359375 436.417969 C 1299.511719 432.175781 1298.660156 427.933594 1297.789062 423.5625 C 1294.394531 423.5625 1291 423.5625 1287.503906 423.5625 C 1282.359375 415.847656 1282.359375 415.847656 1282.359375 410.707031 C 1280.664062 409.859375 1278.964844 409.007812 1277.21875 408.136719 C 1278.914062 403.042969 1280.613281 397.953125 1282.359375 392.707031 C 1279.8125 392.707031 1277.269531 392.707031 1274.644531 392.707031 C 1270.628906 388.046875 1270.628906 388.046875 1266.933594 382.421875 C 1265.234375 379.875 1263.539062 377.332031 1261.789062 374.707031 C 1261.789062 372.164062 1261.789062 369.617188 1261.789062 366.996094 C 1269.164062 368.46875 1271.71875 369.210938 1277.21875 374.707031 C 1281.460938 376.527344 1285.742188 378.253906 1290.074219 379.851562 C 1291.503906 378.417969 1292.9375 376.988281 1294.414062 375.511719 C 1301.535156 368.386719 1308.660156 361.261719 1315.785156 354.140625 Z M 1269.503906 377.28125 C 1272.074219 382.421875 1272.074219 382.421875 1272.074219 382.421875 Z M 1269.503906 377.28125 " fill-opacity="1" fill-rule="nonzero"/><path fill="#8090f6" d="M 1092.085938 210.148438 C 1093.785156 210.996094 1095.480469 211.847656 1097.230469 212.71875 C 1095.53125 216.113281 1093.835938 219.507812 1092.085938 223.003906 C 1094.632812 223.003906 1097.179688 223.003906 1099.800781 223.003906 C 1098.105469 226.398438 1096.40625 229.792969 1094.660156 233.289062 C 1092.960938 233.289062 1091.265625 233.289062 1089.515625 233.289062 C 1088.667969 235.835938 1087.820312 238.382812 1086.945312 241.003906 C 1085.246094 241.003906 1083.550781 241.003906 1081.800781 241.003906 C 1081.800781 242.699219 1081.800781 244.398438 1081.800781 246.144531 C 1080.105469 247.84375 1078.410156 249.539062 1076.660156 251.289062 C 1072.796875 255.753906 1068.988281 260.265625 1065.179688 264.777344 C 1063.878906 266.265625 1062.574219 267.753906 1061.230469 269.289062 C 1060.007812 270.75 1058.785156 272.210938 1057.527344 273.71875 C 1053.519531 277 1053.519531 277 1043.234375 277 C 1043.710938 278.59375 1044.1875 280.183594 1044.679688 281.824219 C 1045.804688 287.285156 1045.804688 287.285156 1043.234375 292.429688 C 1040.6875 291.582031 1038.140625 290.730469 1035.519531 289.859375 C 1032.050781 291.484375 1028.621094 293.203125 1025.234375 295 C 1022.6875 295 1020.144531 295 1017.519531 295 C 1017.519531 293.304688 1017.519531 291.605469 1017.519531 289.859375 C 1015.824219 289.859375 1014.128906 289.859375 1012.378906 289.859375 C 1013.226562 293.25 1014.074219 296.644531 1014.949219 300.140625 C 1004.710938 304.558594 994.46875 308.910156 984.09375 313 C 1000.398438 269.132812 1035.324219 236.316406 1076.820312 216.417969 C 1085.265625 212.550781 1085.265625 212.550781 1092.085938 210.148438 Z M 1092.085938 210.148438 " fill-opacity="1" fill-rule="nonzero"/><path fill="#919cff" d="M 441.5625 228.148438 C 443.257812 230.691406 444.957031 233.238281 446.703125 235.859375 C 449.25 233.316406 451.792969 230.769531 454.417969 228.148438 C 455.265625 229.84375 456.113281 231.542969 456.988281 233.289062 C 459.320312 232.335938 461.65625 231.382812 464.058594 230.398438 C 472.417969 228.148438 472.417969 228.148438 478.039062 230.558594 C 479.578125 231.460938 481.117188 232.359375 482.703125 233.289062 C 485.246094 232.441406 487.792969 231.59375 490.414062 230.71875 C 489.566406 233.265625 488.71875 235.808594 487.84375 238.433594 C 492.085938 237.585938 496.328125 236.734375 500.699219 235.859375 C 500.699219 238.40625 500.699219 240.953125 500.699219 243.574219 C 499.003906 244.421875 497.304688 245.273438 495.558594 246.144531 C 494.707031 247.84375 493.859375 249.539062 492.984375 251.289062 C 491.714844 248.742188 491.714844 248.742188 490.414062 246.144531 C 482.398438 247.808594 482.398438 247.808594 480.128906 253.859375 C 478.433594 253.859375 476.734375 253.859375 474.988281 253.859375 C 474.988281 255.558594 474.988281 257.253906 474.988281 259.003906 C 472.679688 259.398438 472.679688 259.398438 470.328125 259.804688 C 463.976562 261.800781 461.300781 264.328125 456.988281 269.289062 C 455.292969 268.4375 453.59375 267.589844 451.847656 266.714844 C 450.996094 269.261719 450.148438 271.808594 449.273438 274.429688 C 442.640625 280.402344 440.398438 282.144531 431.277344 282.144531 C 430.425781 284.6875 429.578125 287.234375 428.703125 289.859375 C 420.992188 289.859375 420.992188 289.859375 415.847656 287.285156 C 412.90625 288.71875 412.90625 288.71875 409.902344 290.179688 C 402.992188 292.429688 402.992188 292.429688 395.921875 288.894531 C 394.011719 287.515625 392.101562 286.136719 390.136719 284.714844 C 389.289062 284.714844 388.4375 284.714844 387.566406 284.714844 C 387.566406 280.472656 387.566406 276.230469 387.566406 271.859375 C 389.210938 271.222656 390.851562 270.585938 392.546875 269.929688 C 398.332031 267.191406 398.332031 267.191406 399.777344 261.253906 C 399.992188 259.660156 400.203125 258.070312 400.421875 256.429688 C 402.964844 257.28125 405.511719 258.128906 408.136719 259.003906 C 409.671875 257.464844 411.210938 255.925781 412.796875 254.34375 C 414.652344 252.484375 416.507812 250.628906 418.421875 248.71875 C 419.691406 247.234375 420.964844 245.746094 422.277344 244.21875 C 426.132812 241.003906 426.132812 241.003906 436.417969 241.003906 C 436.417969 237.609375 436.417969 234.214844 436.417969 230.71875 C 438.117188 229.871094 439.8125 229.023438 441.5625 228.148438 Z M 441.5625 228.148438 " fill-opacity="1" fill-rule="nonzero"/><path fill="#5d66e1" d="M 472.738281 757.183594 C 486.789062 757.242188 496.203125 758.722656 508.414062 765.539062 C 507.566406 767.234375 506.714844 768.933594 505.84375 770.679688 C 502.820312 770.601562 502.820312 770.601562 499.734375 770.519531 C 493.035156 770.199219 493.035156 770.199219 487.84375 773.253906 C 485.351562 772.828125 482.859375 772.402344 480.289062 771.96875 C 472.339844 770.042969 472.339844 770.042969 464.703125 773.253906 C 463.164062 772.773438 461.625 772.296875 460.042969 771.804688 C 452.066406 770.210938 446.617188 773.230469 438.988281 775.824219 C 430.3125 776.144531 430.3125 776.144531 423.5625 775.824219 C 422.714844 777.519531 421.867188 779.21875 420.992188 780.964844 C 418.445312 780.117188 415.898438 779.269531 413.277344 778.394531 C 412.429688 780.09375 411.582031 781.789062 410.707031 783.539062 C 408.160156 784.808594 408.160156 784.808594 405.5625 786.109375 C 403.867188 784.410156 402.167969 782.714844 400.421875 780.964844 C 398.085938 783.085938 395.753906 785.207031 393.351562 787.394531 C 386.1875 793.90625 385.320312 793.824219 374.707031 793.824219 C 373.859375 795.519531 373.011719 797.214844 372.136719 798.964844 C 358.710938 804.109375 358.710938 804.109375 351.566406 804.109375 C 350.71875 805.804688 349.871094 807.5 348.996094 809.25 C 342.40625 810.855469 342.40625 810.855469 336.140625 811.820312 C 334.441406 807.578125 332.746094 803.335938 330.996094 798.964844 C 340.558594 792.070312 347.695312 788.039062 359.28125 786.109375 C 360.976562 784.410156 362.675781 782.714844 364.421875 780.964844 C 366.386719 781.019531 368.347656 781.074219 370.371094 781.125 C 378.941406 780.925781 382.988281 777.765625 390.136719 773.253906 C 392.683594 773.253906 395.226562 773.253906 397.851562 773.253906 C 401.746094 771.503906 401.746094 771.503906 405.722656 769.71875 C 419.164062 763.695312 433.871094 760.363281 448.613281 760.425781 C 456.761719 760.382812 463.519531 757.308594 472.738281 757.183594 Z M 338.710938 801.535156 C 339.558594 803.234375 340.410156 804.929688 341.28125 806.679688 C 342.132812 804.980469 342.980469 803.285156 343.855469 801.535156 C 342.15625 801.535156 340.460938 801.535156 338.710938 801.535156 Z M 338.710938 801.535156 " fill-opacity="1" fill-rule="nonzero"/><path fill="#6c72ee" d="M 983.933594 358.476562 C 992.984375 359.402344 993.484375 360.957031 999.523438 366.996094 C 1003.820312 366.203125 1008.105469 365.339844 1012.378906 364.421875 C 1018.988281 366.519531 1024.539062 369.167969 1030.539062 372.621094 C 1036.683594 375.195312 1039.644531 374.339844 1045.804688 372.136719 C 1045.804688 379.851562 1045.804688 379.851562 1043.234375 387.566406 C 1040.847656 387.9375 1038.460938 388.308594 1036 388.691406 C 1027.789062 389.933594 1027.789062 389.933594 1020.09375 392.707031 C 1018.605469 392.230469 1017.121094 391.753906 1015.59375 391.261719 C 1004.953125 389.191406 995.480469 393.441406 986.023438 398.171875 C 979.210938 405.472656 976.761719 414.148438 973.808594 423.5625 C 972.960938 423.5625 972.113281 423.5625 971.238281 423.5625 C 971.089844 413.8125 970.996094 404.0625 970.917969 394.316406 C 970.875 391.535156 970.832031 388.757812 970.785156 385.898438 C 970.769531 383.246094 970.753906 380.59375 970.738281 377.863281 C 970.710938 375.410156 970.683594 372.960938 970.65625 370.4375 C 971.578125 360.917969 974.699219 359.460938 983.933594 358.476562 Z M 983.933594 358.476562 " fill-opacity="1" fill-rule="nonzero"/><path fill="#799bfb" d="M 259.003906 747.539062 C 342.15625 747.539062 425.3125 747.539062 510.984375 747.539062 C 505.84375 752.683594 505.84375 752.683594 498.660156 753.308594 C 495.660156 753.296875 492.660156 753.285156 489.570312 753.273438 C 486.292969 753.269531 483.015625 753.265625 479.636719 753.261719 C 477.921875 753.242188 476.210938 753.226562 474.445312 753.210938 C 469.257812 753.164062 464.074219 753.160156 458.886719 753.160156 C 444.210938 753.09375 430.300781 752.863281 415.847656 750.109375 C 415 751.808594 414.152344 753.503906 413.277344 755.253906 C 413.277344 753.554688 413.277344 751.859375 413.277344 750.109375 C 411.296875 750.511719 409.3125 750.914062 407.269531 751.328125 C 403.402344 752.078125 403.402344 752.078125 399.457031 752.84375 C 395.609375 753.605469 395.609375 753.605469 391.683594 754.378906 C 384.992188 755.253906 384.992188 755.253906 379.851562 752.683594 C 373.316406 752.777344 366.917969 753.042969 360.40625 753.484375 C 358.613281 753.578125 356.816406 753.667969 354.96875 753.761719 C 350.386719 754.058594 345.828125 754.636719 341.28125 755.253906 C 340.433594 756.949219 339.585938 758.648438 338.710938 760.394531 C 333.851562 762.316406 333.851562 762.316406 327.785156 764.09375 C 318.464844 767.03125 310.917969 770.425781 302.714844 775.824219 C 299.457031 777.714844 296.1875 779.589844 292.910156 781.449219 C 288.855469 783.753906 288.855469 783.753906 284.714844 786.109375 C 283.019531 783.5625 281.320312 781.019531 279.574219 778.394531 C 282.039062 777.359375 282.039062 777.359375 284.554688 776.304688 C 290.710938 773.542969 290.710938 773.542969 292.429688 765.539062 C 296.671875 764.691406 300.914062 763.839844 305.285156 762.96875 C 306.132812 759.574219 306.980469 756.179688 307.855469 752.683594 C 300.21875 751.410156 300.21875 751.410156 292.429688 750.109375 C 291.582031 751.808594 290.730469 753.503906 289.859375 755.253906 C 286.464844 755.253906 283.070312 755.253906 279.574219 755.253906 C 275.070312 758.894531 275.070312 758.894531 271.859375 762.96875 C 271.859375 759.539062 271.859375 756.109375 271.859375 752.683594 C 267.617188 751.832031 263.375 750.984375 259.003906 750.109375 C 259.003906 749.261719 259.003906 748.414062 259.003906 747.539062 Z M 259.003906 747.539062 " fill-opacity="1" fill-rule="nonzero"/><path fill="#b7c9fe" d="M 536.347656 564.640625 C 542.433594 564.636719 548.523438 564.636719 554.613281 564.632812 C 567.296875 564.628906 579.980469 564.632812 592.664062 564.644531 C 608.847656 564.660156 625.035156 564.652344 641.222656 564.636719 C 653.765625 564.628906 666.3125 564.628906 678.855469 564.636719 C 684.824219 564.640625 690.789062 564.636719 696.757812 564.628906 C 705.109375 564.625 713.460938 564.632812 721.808594 564.648438 C 724.226562 564.644531 726.644531 564.636719 729.136719 564.632812 C 746.511719 564.6875 763.667969 565.898438 780.964844 567.550781 C 780.964844 568.402344 780.964844 569.25 780.964844 570.125 C 738.652344 572.574219 696.5625 572.863281 654.191406 572.382812 C 647.644531 572.320312 641.09375 572.257812 634.546875 572.199219 C 619.238281 572.054688 603.933594 571.898438 588.628906 571.734375 C 571.160156 571.546875 553.691406 571.378906 536.222656 571.210938 C 500.382812 570.871094 464.542969 570.503906 428.703125 570.125 C 428.703125 569.273438 428.703125 568.425781 428.703125 567.550781 C 464.597656 564.851562 500.367188 564.601562 536.347656 564.640625 Z M 536.347656 564.640625 " fill-opacity="1" fill-rule="nonzero"/><path fill="#7d98fe" d="M 703.828125 778.394531 C 709.84375 779.132812 715.847656 779.988281 721.828125 780.964844 C 720.15625 783.035156 720.15625 783.035156 718.453125 785.144531 C 713.582031 792 710.015625 799.097656 706.398438 806.679688 C 710.640625 804.980469 714.886719 803.285156 719.257812 801.535156 C 721.800781 805.355469 721.800781 805.355469 724.398438 809.25 C 726.945312 809.25 729.488281 809.25 732.113281 809.25 C 732.113281 810.945312 732.113281 812.644531 732.113281 814.390625 C 730.414062 814.390625 728.71875 814.390625 726.96875 814.390625 C 726.96875 817.785156 726.96875 821.179688 726.96875 824.675781 C 723.945312 825.792969 723.945312 825.792969 720.863281 826.925781 C 713.863281 829.433594 713.863281 829.433594 708.972656 834.960938 C 705.578125 832.417969 702.183594 829.871094 698.6875 827.25 C 698.6875 828.945312 698.6875 830.644531 698.6875 832.390625 C 700.382812 833.238281 702.082031 834.089844 703.828125 834.960938 C 702.132812 834.960938 700.433594 834.960938 698.6875 834.960938 C 698.6875 836.660156 698.6875 838.355469 698.6875 840.105469 C 696.988281 839.257812 695.292969 838.40625 693.542969 837.535156 C 691.847656 837.535156 690.148438 837.535156 688.402344 837.535156 C 685.855469 837.535156 683.308594 837.535156 680.6875 837.535156 C 679.839844 839.230469 678.992188 840.925781 678.117188 842.675781 C 676.417969 842.675781 674.722656 842.675781 672.972656 842.675781 C 674.007812 829.226562 675.6875 823.269531 685.828125 814.390625 C 686.679688 811.847656 687.527344 809.300781 688.402344 806.679688 C 690.097656 804.664062 691.796875 802.648438 693.542969 800.570312 C 698.859375 793.59375 700.074219 789.480469 701.257812 780.964844 C 702.105469 780.117188 702.953125 779.269531 703.828125 778.394531 Z M 703.828125 778.394531 " fill-opacity="1" fill-rule="nonzero"/><path fill="#5659d7" d="M 516.128906 783.539062 C 531.332031 784.699219 545.246094 786.570312 559.839844 791.25 C 563.210938 792.226562 566.585938 793.191406 569.964844 794.144531 C 572.5625 794.886719 575.160156 795.628906 577.835938 796.394531 C 577.835938 798.9375 577.835938 801.484375 577.835938 804.109375 C 575.292969 803.257812 572.746094 802.410156 570.125 801.535156 C 568.425781 802.382812 566.730469 803.234375 564.980469 804.109375 C 564.980469 802.410156 564.980469 800.714844 564.980469 798.964844 C 558.277344 798.773438 552.289062 798.933594 545.695312 800.25 C 539.078125 801.574219 533.144531 801.535156 526.414062 801.535156 C 520.148438 802.582031 514.035156 803.988281 507.871094 805.511719 C 505.824219 806.003906 503.773438 806.496094 501.664062 807 C 499.722656 807.484375 497.78125 807.96875 495.777344 808.464844 C 490.414062 809.25 490.414062 809.25 482.703125 806.679688 C 474.65625 808.574219 474.65625 808.574219 467.273438 811.820312 C 466.425781 813.519531 465.578125 815.214844 464.703125 816.964844 C 464.703125 815.265625 464.703125 813.570312 464.703125 811.820312 C 452.855469 814.933594 452.855469 814.933594 441.5625 819.535156 C 442.410156 815.292969 443.257812 811.050781 444.132812 806.679688 C 446.785156 806.359375 449.4375 806.042969 452.167969 805.714844 C 461.808594 804.46875 461.808594 804.46875 469.363281 801.535156 C 478.820312 798.570312 487.574219 798 497.4375 797.527344 C 504.363281 796.179688 506.355469 793.800781 510.984375 788.679688 C 512.683594 788.679688 514.378906 788.679688 516.128906 788.679688 C 516.128906 786.984375 516.128906 785.285156 516.128906 783.539062 Z M 516.128906 783.539062 " fill-opacity="1" fill-rule="nonzero"/><path fill="#5458d5" d="M 91.871094 919.8125 C 92.71875 919.8125 93.566406 919.8125 94.441406 919.8125 C 94.441406 927.449219 94.441406 935.085938 94.441406 942.953125 C 96.140625 943.804688 97.835938 944.652344 99.585938 945.527344 C 97.886719 945.527344 96.191406 945.527344 94.441406 945.527344 C 94.660156 979.367188 94.902344 1013.207031 95.183594 1047.046875 C 95.308594 1062.761719 95.429688 1078.476562 95.527344 1094.1875 C 95.621094 1109.359375 95.742188 1124.53125 95.878906 1139.703125 C 95.925781 1145.484375 95.964844 1151.265625 95.992188 1157.046875 C 96.039062 1165.160156 96.113281 1173.269531 96.195312 1181.382812 C 96.199219 1183.761719 96.203125 1186.140625 96.210938 1188.589844 C 96.390625 1202.710938 98.292969 1214.777344 102.15625 1228.363281 C 102.9375 1233.378906 103.597656 1238.417969 104.085938 1243.46875 C 104.335938 1245.847656 104.589844 1248.230469 104.847656 1250.679688 C 104.726562 1256.648438 104.726562 1256.648438 99.585938 1261.789062 C 91.808594 1243.292969 90.804688 1226.652344 90.996094 1206.753906 C 90.996094 1203.640625 90.992188 1200.527344 90.992188 1197.320312 C 90.996094 1188.851562 91.035156 1180.386719 91.089844 1171.921875 C 91.136719 1163.046875 91.140625 1154.171875 91.152344 1145.296875 C 91.175781 1128.523438 91.238281 1111.75 91.316406 1094.976562 C 91.402344 1075.871094 91.445312 1056.761719 91.484375 1037.652344 C 91.5625 998.371094 91.699219 959.09375 91.871094 919.8125 Z M 91.871094 919.8125 " fill-opacity="1" fill-rule="nonzero"/><path fill="#6e79f8" d="M 338.710938 1333.785156 C 388.347656 1335.058594 388.347656 1335.058594 438.988281 1336.355469 C 438.988281 1338.054688 438.988281 1339.75 438.988281 1341.5 C 430.109375 1346.890625 430.109375 1346.890625 423.242188 1345.675781 C 421.648438 1345.148438 420.058594 1344.617188 418.421875 1344.070312 C 416.722656 1344.070312 415.027344 1344.070312 413.277344 1344.070312 C 412.429688 1345.765625 411.582031 1347.464844 410.707031 1349.210938 C 408.742188 1348.734375 406.78125 1348.257812 404.761719 1347.765625 C 397.621094 1346.054688 397.621094 1346.054688 390.136719 1349.210938 C 389.289062 1350.910156 388.4375 1352.605469 387.566406 1354.355469 C 384.992188 1354.355469 382.421875 1354.355469 379.851562 1354.355469 C 376.402344 1356.027344 372.972656 1357.738281 369.566406 1359.496094 C 368.199219 1358.289062 366.835938 1357.078125 365.429688 1355.832031 C 363.613281 1354.230469 361.796875 1352.628906 359.925781 1350.980469 C 357.238281 1348.609375 357.238281 1348.609375 354.5 1346.1875 C 349.40625 1341.847656 344.066406 1337.800781 338.710938 1333.785156 Z M 382.421875 1344.070312 C 382.421875 1345.765625 382.421875 1347.464844 382.421875 1349.210938 C 384.121094 1348.363281 385.816406 1347.515625 387.566406 1346.640625 C 385.867188 1345.792969 384.171875 1344.945312 382.421875 1344.070312 Z M 382.421875 1344.070312 " fill-opacity="1" fill-rule="nonzero"/><path fill="#6773ed" d="M 307.855469 750.109375 C 331.613281 750.109375 355.371094 750.109375 379.851562 750.109375 C 379.851562 750.960938 379.851562 751.808594 379.851562 752.683594 C 375.71875 752.871094 375.71875 752.871094 371.503906 753.0625 C 367.914062 753.257812 364.320312 753.453125 360.726562 753.648438 C 358.910156 753.726562 357.089844 753.804688 355.21875 753.886719 C 350.558594 754.15625 345.914062 754.6875 341.28125 755.253906 C 340.433594 756.949219 339.585938 758.648438 338.710938 760.394531 C 333.851562 762.316406 333.851562 762.316406 327.785156 764.09375 C 318.464844 767.03125 310.917969 770.425781 302.714844 775.824219 C 299.457031 777.714844 296.1875 779.589844 292.910156 781.449219 C 288.855469 783.753906 288.855469 783.753906 284.714844 786.109375 C 283.019531 783.5625 281.320312 781.019531 279.574219 778.394531 C 282.039062 777.359375 282.039062 777.359375 284.554688 776.304688 C 290.710938 773.542969 290.710938 773.542969 292.429688 765.539062 C 296.671875 764.691406 300.914062 763.839844 305.285156 762.96875 C 306.132812 758.726562 306.980469 754.480469 307.855469 750.109375 Z M 307.855469 750.109375 " fill-opacity="1" fill-rule="nonzero"/><path fill="#7c91ff" d="M 773.253906 873.53125 C 778.394531 876.101562 778.394531 876.101562 783.539062 883.816406 C 782.6875 884.664062 781.839844 885.511719 780.964844 886.386719 C 792.261719 890.40625 792.261719 890.40625 804.109375 891.53125 C 801.5625 894.925781 799.015625 898.316406 796.394531 901.816406 C 793.847656 900.117188 791.300781 898.421875 788.679688 896.671875 C 787.832031 900.066406 786.984375 903.460938 786.109375 906.957031 C 784.410156 906.957031 782.714844 906.957031 780.964844 906.957031 C 780.964844 908.65625 780.964844 910.351562 780.964844 912.101562 C 775.824219 916.277344 775.824219 916.277344 770.679688 919.8125 C 770.679688 916.417969 770.679688 913.027344 770.679688 909.527344 C 764.46875 902.457031 764.46875 902.457031 757.824219 896.671875 C 761.21875 894.125 764.613281 891.582031 768.109375 888.957031 C 767.261719 886.414062 766.414062 883.867188 765.539062 881.246094 C 768.085938 878.699219 770.628906 876.152344 773.253906 873.53125 Z M 773.253906 873.53125 " fill-opacity="1" fill-rule="nonzero"/><path fill="#8792fa" d="M 411.1875 302.554688 C 413.503906 302.578125 415.820312 302.597656 418.210938 302.625 C 419.976562 302.652344 421.742188 302.683594 423.5625 302.714844 C 423.5625 310.425781 423.5625 310.425781 419.707031 314.765625 C 418.433594 315.878906 417.160156 316.992188 415.847656 318.140625 C 415 317.292969 414.152344 316.445312 413.277344 315.570312 C 411.582031 317.265625 409.882812 318.964844 408.136719 320.710938 C 405.589844 320.710938 403.042969 320.710938 400.421875 320.710938 C 402.117188 322.410156 403.816406 324.105469 405.5625 325.855469 C 404.714844 328.402344 403.867188 330.945312 402.992188 333.570312 C 400.445312 333.570312 397.902344 333.570312 395.277344 333.570312 C 394.429688 336.113281 393.582031 338.660156 392.707031 341.28125 C 390.007812 333.183594 389.875 327.429688 389.976562 318.945312 C 390 316.390625 390.023438 313.832031 390.046875 311.199219 C 390.074219 309.25 390.105469 307.296875 390.136719 305.285156 C 397.886719 302.699219 403.101562 302.449219 411.1875 302.554688 Z M 411.1875 302.554688 " fill-opacity="1" fill-rule="nonzero"/><path fill="#494ecb" d="M 518.699219 837.535156 C 520.820312 837.109375 522.941406 836.683594 525.125 836.25 C 531.554688 834.960938 531.554688 834.960938 539.269531 837.535156 C 539.269531 839.230469 539.269531 840.929688 539.269531 842.675781 C 522.234375 848.140625 522.234375 848.140625 513.554688 845.246094 C 508.371094 847.726562 503.230469 850.308594 498.128906 852.960938 C 490.738281 854.730469 490.738281 854.730469 485.273438 855.53125 C 485.273438 845.246094 485.273438 845.246094 487.84375 837.535156 C 491.238281 837.535156 494.632812 837.535156 498.128906 837.535156 C 501.390625 836.816406 501.390625 836.816406 504.71875 836.085938 C 510.984375 834.960938 510.984375 834.960938 518.699219 837.535156 Z M 518.699219 837.535156 " fill-opacity="1" fill-rule="nonzero"/><path fill="#6055d9" d="M 1112.65625 552.125 C 1115.203125 553.820312 1117.75 555.519531 1120.371094 557.265625 C 1122.226562 556.894531 1124.082031 556.523438 1125.996094 556.140625 C 1136.023438 554.136719 1143.734375 555.421875 1153.796875 557.265625 C 1154.644531 558.964844 1155.496094 560.660156 1156.367188 562.410156 C 1161.242188 563.605469 1161.242188 563.605469 1166.8125 564.015625 C 1170.15625 564.335938 1173.496094 564.652344 1176.9375 564.980469 C 1176.9375 565.828125 1176.9375 566.679688 1176.9375 567.550781 C 1125.59375 568.5 1125.59375 568.5 1102.371094 562.410156 C 1105.765625 559.015625 1109.160156 555.621094 1112.65625 552.125 Z M 1112.65625 552.125 " fill-opacity="1" fill-rule="nonzero"/><path fill="#7b7af3" d="M 408.136719 348.996094 C 425.167969 348.351562 425.167969 348.351562 433.847656 354.140625 C 431.917969 360.40625 431.917969 360.40625 428.703125 366.996094 C 423.402344 368.761719 423.402344 368.761719 418.421875 369.566406 C 417.570312 371.261719 416.722656 372.960938 415.847656 374.707031 C 412.453125 373.859375 409.0625 373.011719 405.5625 372.136719 C 406.414062 364.5 407.261719 356.863281 408.136719 348.996094 Z M 408.136719 348.996094 " fill-opacity="1" fill-rule="nonzero"/><path fill="#8b8cf7" d="M 1120.371094 202.433594 C 1140.734375 202.433594 1161.101562 202.433594 1182.082031 202.433594 C 1182.082031 203.285156 1182.082031 204.132812 1182.082031 205.007812 C 1170.625 206.277344 1170.625 206.277344 1158.941406 207.578125 C 1159.789062 210.972656 1160.636719 214.367188 1161.511719 217.863281 C 1159.8125 217.863281 1158.117188 217.863281 1156.367188 217.863281 C 1157.21875 220.40625 1158.066406 222.953125 1158.941406 225.578125 C 1156.394531 226.425781 1153.847656 227.273438 1151.226562 228.148438 C 1146.082031 218.503906 1146.082031 218.503906 1146.082031 212.71875 C 1144.386719 212.71875 1142.691406 212.71875 1140.941406 212.71875 C 1140.09375 214.417969 1139.242188 216.113281 1138.371094 217.863281 C 1137.519531 213.621094 1136.671875 209.378906 1135.796875 205.007812 C 1130.707031 205.007812 1125.617188 205.007812 1120.371094 205.007812 C 1120.371094 204.15625 1120.371094 203.308594 1120.371094 202.433594 Z M 1120.371094 202.433594 " fill-opacity="1" fill-rule="nonzero"/><path fill="#686ff4" d="M 459.558594 1364.640625 C 463.933594 1365.277344 463.933594 1365.277344 468.398438 1365.925781 C 477.128906 1368.035156 477.128906 1368.035156 482.703125 1364.640625 C 484.398438 1365.488281 486.09375 1366.335938 487.84375 1367.210938 C 487.84375 1368.90625 487.84375 1370.605469 487.84375 1372.355469 C 483.546875 1372.910156 483.546875 1372.910156 479.164062 1373.480469 C 470.304688 1374.367188 470.304688 1374.367188 464.703125 1377.496094 C 464.703125 1375.800781 464.703125 1374.101562 464.703125 1372.355469 C 459.613281 1374.898438 459.613281 1374.898438 454.417969 1377.496094 C 454.417969 1375.800781 454.417969 1374.101562 454.417969 1372.355469 C 452.03125 1373.203125 449.644531 1374.050781 447.1875 1374.925781 C 435.21875 1378.679688 425.53125 1376.773438 413.277344 1374.925781 C 414.125 1372.378906 414.972656 1369.832031 415.847656 1367.210938 C 415.847656 1368.90625 415.847656 1370.605469 415.847656 1372.355469 C 417.527344 1371.980469 419.203125 1371.609375 420.929688 1371.230469 C 433.214844 1368.621094 444.375 1366.886719 456.988281 1367.210938 C 457.835938 1366.363281 458.6875 1365.515625 459.558594 1364.640625 Z M 459.558594 1364.640625 " fill-opacity="1" fill-rule="nonzero"/><path fill="#878df3" d="M 978.953125 338.710938 C 986.988281 338.230469 986.988281 338.230469 994.378906 338.710938 C 989.878906 348.675781 989.878906 348.675781 984.09375 351.566406 C 984.09375 354.113281 984.09375 356.660156 984.09375 359.28125 C 979.003906 361.828125 979.003906 361.828125 973.808594 364.421875 C 972.960938 379.695312 972.113281 394.96875 971.238281 410.707031 C 970.390625 410.707031 969.542969 410.707031 968.667969 410.707031 C 968.527344 402.882812 968.425781 395.066406 968.347656 387.242188 C 968.28125 383.941406 968.28125 383.941406 968.214844 380.574219 C 968.089844 364.40625 969.78125 352.46875 978.953125 338.710938 Z M 978.953125 338.710938 " fill-opacity="1" fill-rule="nonzero"/><path fill="#858eff" d="M 873.53125 847.820312 C 875.070312 848.242188 876.605469 848.667969 878.191406 849.105469 C 884.109375 850.675781 884.109375 850.675781 891.53125 850.390625 C 893.226562 852.085938 894.925781 853.785156 896.671875 855.53125 C 890.949219 861.253906 885.988281 864.90625 878.671875 868.390625 C 873.371094 866.140625 873.371094 866.140625 868.390625 863.246094 C 862.738281 864.011719 862.738281 864.011719 858.105469 865.816406 C 857.253906 863.273438 856.40625 860.726562 855.53125 858.105469 C 861.472656 856.40625 867.410156 854.710938 873.53125 852.960938 C 873.53125 851.265625 873.53125 849.566406 873.53125 847.820312 Z M 873.53125 847.820312 " fill-opacity="1" fill-rule="nonzero"/><path fill="#7d76ec" d="M 1323.5 415.847656 C 1325.195312 415.847656 1326.894531 415.847656 1328.640625 415.847656 C 1331.980469 428.996094 1330.136719 436.546875 1324.945312 448.953125 C 1323.730469 451.917969 1322.511719 454.878906 1321.261719 457.933594 C 1320.300781 460.167969 1319.34375 462.402344 1318.355469 464.703125 C 1316.660156 461.308594 1314.964844 457.914062 1313.214844 454.417969 C 1314.910156 453.570312 1316.609375 452.71875 1318.355469 451.847656 C 1320.648438 442.476562 1321.535156 435.320312 1318.355469 426.132812 C 1320.054688 426.132812 1321.75 426.132812 1323.5 426.132812 C 1322.652344 423.589844 1321.800781 421.042969 1320.929688 418.421875 C 1321.777344 417.570312 1322.625 416.722656 1323.5 415.847656 Z M 1323.5 415.847656 " fill-opacity="1" fill-rule="nonzero"/><path fill="#aa92fc" d="M 711.542969 248.71875 C 719.257812 251.289062 719.257812 251.289062 721.667969 255.949219 C 721.828125 261.574219 721.828125 261.574219 717.328125 267.199219 C 711.542969 271.859375 711.542969 271.859375 703.828125 274.429688 C 702.132812 271.882812 700.433594 269.339844 698.6875 266.714844 C 700.382812 266.714844 702.082031 266.714844 703.828125 266.714844 C 706.582031 261.691406 706.582031 261.691406 707.6875 256.269531 C 708.972656 251.289062 708.972656 251.289062 711.542969 248.71875 Z M 711.542969 248.71875 " fill-opacity="1" fill-rule="nonzero"/><path fill="#7d92ff" d="M 765.539062 868.390625 C 768.085938 869.238281 770.628906 870.085938 773.253906 870.960938 C 769.960938 875.351562 766.523438 879.632812 762.96875 883.816406 C 761.269531 883.816406 759.574219 883.816406 757.824219 883.816406 C 756.976562 885.511719 756.128906 887.210938 755.253906 888.957031 C 752.707031 888.109375 750.164062 887.261719 747.539062 886.386719 C 750.085938 881.296875 752.632812 876.207031 755.253906 870.960938 C 758.648438 871.808594 762.042969 872.65625 765.539062 873.53125 C 765.539062 871.835938 765.539062 870.136719 765.539062 868.390625 Z M 765.539062 868.390625 " fill-opacity="1" fill-rule="nonzero"/><path fill="#7a82f6" d="M 338.710938 1333.785156 C 357.8125 1336.355469 357.8125 1336.355469 366.996094 1338.925781 C 367.84375 1344.019531 368.691406 1349.109375 369.566406 1354.355469 C 361.851562 1354.355469 361.851562 1354.355469 357.996094 1351.160156 C 356.722656 1349.777344 355.449219 1348.390625 354.140625 1346.960938 C 349.070312 1341.496094 345.054688 1338.011719 338.710938 1333.785156 Z M 338.710938 1333.785156 " fill-opacity="1" fill-rule="nonzero"/><path fill="#4d56d2" d="M 462.132812 822.105469 C 462.980469 824.652344 463.828125 827.199219 464.703125 829.820312 C 463.003906 831.515625 461.308594 833.214844 459.558594 834.960938 C 458.710938 834.113281 457.863281 833.265625 456.988281 832.390625 C 455.292969 834.089844 453.59375 835.785156 451.847656 837.535156 C 448.453125 835.835938 445.058594 834.140625 441.5625 832.390625 C 447.914062 822.863281 450.894531 822.105469 462.132812 822.105469 Z M 462.132812 822.105469 " fill-opacity="1" fill-rule="nonzero"/><path fill="#9083f3" d="M 714.113281 89.300781 C 726.328125 91.226562 726.328125 91.226562 732.113281 97.015625 C 731.148438 103.761719 731.148438 103.761719 729.542969 109.871094 C 717.199219 101.007812 717.199219 101.007812 714.597656 93.800781 C 714.4375 92.316406 714.277344 90.828125 714.113281 89.300781 Z M 714.113281 89.300781 " fill-opacity="1" fill-rule="nonzero"/><path fill="#8d85f4" d="M 1197.507812 207.578125 C 1211.507812 211.394531 1211.507812 211.394531 1225.792969 215.292969 C 1214.59375 220.890625 1211.738281 220.511719 1200.078125 217.863281 C 1199.230469 214.46875 1198.382812 211.074219 1197.507812 207.578125 Z M 1197.507812 207.578125 " fill-opacity="1" fill-rule="nonzero"/><path fill="#686df6" d="M 534.125 1362.070312 C 535.824219 1362.917969 537.519531 1363.765625 539.269531 1364.640625 C 536.535156 1368.496094 536.535156 1368.496094 531.554688 1372.355469 C 522.074219 1372.835938 522.074219 1372.835938 513.554688 1372.355469 C 514.40625 1369.808594 515.253906 1367.261719 516.128906 1364.640625 C 523.839844 1362.070312 523.839844 1362.070312 534.125 1362.070312 Z M 534.125 1362.070312 " fill-opacity="1" fill-rule="nonzero"/><path fill="#5043d3" d="M 1156.367188 557.265625 C 1162.308594 557.265625 1168.246094 557.265625 1174.367188 557.265625 C 1175.214844 559.8125 1176.0625 562.359375 1176.9375 564.980469 C 1169.300781 564.980469 1161.664062 564.980469 1153.796875 564.980469 C 1154.644531 562.4375 1155.496094 559.890625 1156.367188 557.265625 Z M 1156.367188 557.265625 " fill-opacity="1" fill-rule="nonzero"/><path fill="#8a81f3" d="M 1328.640625 351.566406 C 1330.339844 351.566406 1332.035156 351.566406 1333.785156 351.566406 C 1333.785156 359.203125 1333.785156 366.839844 1333.785156 374.707031 C 1332.085938 373.859375 1330.390625 373.011719 1328.640625 372.136719 C 1326.875 363.136719 1326.875 363.136719 1326.070312 354.140625 C 1326.917969 353.289062 1327.769531 352.441406 1328.640625 351.566406 Z M 1328.640625 351.566406 " fill-opacity="1" fill-rule="nonzero"/><path fill="#635adf" d="M 989.238281 464.703125 C 990.933594 464.703125 992.632812 464.703125 994.378906 464.703125 C 997.953125 469.746094 1001.390625 474.890625 1004.664062 480.128906 C 1002.121094 483.949219 1002.121094 483.949219 999.523438 487.84375 C 989.238281 470.488281 989.238281 470.488281 989.238281 464.703125 Z M 989.238281 464.703125 " fill-opacity="1" fill-rule="nonzero"/><path fill="#9d9afe" d="M 518.699219 169.007812 C 522.09375 171.554688 525.488281 174.101562 528.984375 176.722656 C 528.136719 178.417969 527.285156 180.117188 526.414062 181.863281 C 519.824219 183.472656 519.824219 183.472656 513.554688 184.4375 C 514.855469 178.859375 516.128906 174.152344 518.699219 169.007812 Z M 518.699219 169.007812 " fill-opacity="1" fill-rule="nonzero"/><path fill="#5e5dce" d="M 91.871094 1207.792969 C 93.566406 1207.792969 95.265625 1207.792969 97.015625 1207.792969 C 97.863281 1212.035156 98.710938 1216.277344 99.585938 1220.648438 C 97.886719 1220.648438 96.191406 1220.648438 94.441406 1220.648438 C 94.441406 1226.589844 94.441406 1232.527344 94.441406 1238.648438 C 93.59375 1238.648438 92.746094 1238.648438 91.871094 1238.648438 C 91.871094 1228.464844 91.871094 1218.285156 91.871094 1207.792969 Z M 91.871094 1207.792969 " fill-opacity="1" fill-rule="nonzero"/><path fill="#5a5ad7" d="M 582.980469 798.964844 C 588.917969 798.964844 594.859375 798.964844 600.980469 798.964844 C 602.675781 802.359375 604.371094 805.753906 606.121094 809.25 C 598.820312 809.25 592.65625 808.214844 585.550781 806.679688 C 584.703125 804.132812 583.855469 801.585938 582.980469 798.964844 Z M 582.980469 798.964844 " fill-opacity="1" fill-rule="nonzero"/><path fill="#6563d0" d="M 94.441406 1241.21875 C 96.988281 1242.070312 99.535156 1242.917969 102.15625 1243.792969 C 103.761719 1249.898438 103.761719 1249.898438 104.726562 1256.648438 C 103.03125 1258.34375 101.332031 1260.042969 99.585938 1261.789062 C 96.355469 1254.316406 94.441406 1249.457031 94.441406 1241.21875 Z M 94.441406 1241.21875 " fill-opacity="1" fill-rule="nonzero"/><path fill="#b3adfb" d="M 585.550781 55.875 C 584.382812 56.988281 583.21875 58.101562 582.015625 59.25 C 577.324219 63.863281 577.324219 63.863281 572.695312 71.300781 C 571.847656 68.753906 570.996094 66.210938 570.125 63.585938 C 564.980469 60.480469 564.980469 60.480469 559.839844 58.445312 C 568.59375 56.445312 576.570312 55.617188 585.550781 55.875 Z M 585.550781 55.875 " fill-opacity="1" fill-rule="nonzero"/><path fill="#8491ff" d="M 840.105469 845.246094 C 845.085938 845.890625 845.085938 845.890625 850.390625 847.820312 C 852.085938 850.363281 853.785156 852.910156 855.53125 855.53125 C 846.488281 855.53125 844.292969 853.414062 837.535156 847.820312 C 838.382812 846.96875 839.230469 846.121094 840.105469 845.246094 Z M 840.105469 845.246094 " fill-opacity="1" fill-rule="nonzero"/><path fill="#6d78f2" d="M 285.035156 749.789062 C 287.476562 749.894531 289.914062 750.003906 292.429688 750.109375 C 291.582031 751.808594 290.730469 753.503906 289.859375 755.253906 C 286.464844 755.253906 283.070312 755.253906 279.574219 755.253906 C 275.070312 758.894531 275.070312 758.894531 271.859375 762.96875 C 271.859375 751.992188 274.171875 750.222656 285.035156 749.789062 Z M 285.035156 749.789062 " fill-opacity="1" fill-rule="nonzero"/><path fill="#6f68e5" d="M 1300.359375 474.988281 C 1302.902344 475.835938 1305.449219 476.683594 1308.070312 477.558594 C 1306.375 481.800781 1304.679688 486.042969 1302.929688 490.414062 C 1300.382812 488.71875 1297.839844 487.019531 1295.214844 485.273438 C 1295.214844 483.574219 1295.214844 481.878906 1295.214844 480.128906 C 1296.914062 480.128906 1298.609375 480.128906 1300.359375 480.128906 C 1300.359375 478.433594 1300.359375 476.734375 1300.359375 474.988281 Z M 1300.359375 474.988281 " fill-opacity="1" fill-rule="nonzero"/><path fill="#9aa5f8" d="M 1092.085938 210.148438 C 1093.785156 210.996094 1095.480469 211.847656 1097.230469 212.71875 C 1093.835938 213.570312 1090.441406 214.417969 1086.945312 215.292969 C 1086.097656 219.535156 1085.246094 223.777344 1084.375 228.148438 C 1083.523438 225.601562 1082.675781 223.054688 1081.800781 220.433594 C 1079.257812 219.585938 1076.710938 218.738281 1074.089844 217.863281 C 1080.011719 215.121094 1086.019531 212.554688 1092.085938 210.148438 Z M 1092.085938 210.148438 " fill-opacity="1" fill-rule="nonzero"/></svg>