<?xml version="1.0" encoding="UTF-8"?>
<svg version="1.1" xmlns="http://www.w3.org/2000/svg" width="600" height="600">
<path d="M0 0 C2.35636413 -0.00322266 4.71272806 -0.00658745 7.0690918 -0.01008606 C11.98063623 -0.01603459 16.89216317 -0.01793025 21.80371094 -0.01733398 C28.05342706 -0.01723226 34.30302984 -0.03091458 40.55271912 -0.04810619 C45.41044619 -0.05929564 50.26814638 -0.06125112 55.12588501 -0.06072426 C57.42844027 -0.06189277 59.73099649 -0.06624987 62.03353882 -0.07405663 C91.26033222 -0.16393324 117.06152214 2.62933189 140.3125 22.16796875 C141.13126114 23.19134842 141.95002228 24.21472809 142.79359436 25.26911926 C146.31441277 28.78233481 149.42370686 28.88277311 154.25390625 28.94462585 C155.81322876 28.91922478 155.81322876 28.91922478 157.40405273 28.89331055 C158.51224869 28.8991214 159.62044464 28.90493225 160.76222229 28.91091919 C164.42404491 28.92371967 168.08437403 28.8949894 171.74609375 28.8671875 C174.30233865 28.87082306 176.85858085 28.87752739 179.41481018 28.88716125 C185.4637008 28.90430096 191.51203113 28.89703907 197.56086737 28.87584001 C208.9972586 28.83598471 220.43343088 28.83863435 231.8698597 28.86478615 C235.60706268 28.86713931 239.34377559 28.84941864 243.08091736 28.82951355 C269.71221443 28.7790564 291.72912204 34.1706179 312.3125 52.16796875 C312.99957031 52.75964844 313.68664062 53.35132813 314.39453125 53.9609375 C328.99194592 67.46426587 338.43886922 88.9725125 339.50327682 108.70460892 C339.58561694 112.8103086 339.60618433 116.91175481 339.60302734 121.01806641 C339.60902413 122.58814815 339.61583229 124.15822696 339.62338257 125.728302 C339.64093544 129.96421018 339.64573347 134.20003737 339.64701414 138.43597841 C339.64844271 141.09171021 339.65272562 143.74742188 339.65800858 146.40314865 C339.67647533 155.6947229 339.68468364 164.98624004 339.68310547 174.27783203 C339.68190586 182.89552102 339.70298141 191.51295885 339.7345928 200.13058436 C339.7608761 207.5645678 339.7714677 214.99846983 339.77019465 222.43249929 C339.76968843 226.85676835 339.77518076 231.28081401 339.79655075 235.70503616 C339.81613709 239.873273 339.81592087 244.04107805 339.80151749 248.20933151 C339.79945309 249.72446078 339.80398564 251.23961857 339.8162384 252.75469971 C340.00745312 278.07304529 331.24859369 300.2837223 313.5625 318.48046875 C292.69137277 338.99796223 267.15460048 342.63580754 239.05371094 342.55615234 C236.62915308 342.56022433 234.20459708 342.56556971 231.78004456 342.57208252 C225.91021809 342.58428132 220.04049761 342.58257929 214.17067423 342.5738446 C209.39239112 342.56703255 204.61414017 342.56616643 199.83585358 342.56941605 C198.81053328 342.57010559 198.81053328 342.57010559 197.76449944 342.57080907 C196.37525834 342.57176839 194.98601724 342.57274103 193.59677616 342.57372685 C180.60602089 342.58225688 167.61532939 342.57248561 154.62458459 342.55632575 C143.51840854 342.54293682 132.41232667 342.54524353 121.30615234 342.55908203 C108.36386324 342.57520115 95.42162995 342.5814205 82.47933221 342.57224524 C81.09435798 342.57128975 79.70938373 342.57034663 78.32440948 342.56941605 C77.64324437 342.56895322 76.96207926 342.56849039 76.26027279 342.56801354 C71.49906036 342.56544165 66.73788381 342.56975562 61.97667694 342.57685471 C55.54475463 342.58558782 49.11300819 342.5793876 42.68110466 342.56217194 C40.334742 342.55824008 37.98836428 342.55928368 35.64200783 342.56595993 C-4.77304335 342.67025958 -40.09567351 331.41450198 -70.6875 304.16796875 C-71.42806641 303.29591797 -71.42806641 303.29591797 -72.18359375 302.40625 C-76.89479559 298.52715654 -86.07036583 300.01345335 -91.84765625 299.9921875 C-94.2753992 299.96897903 -96.70313359 299.94486128 -99.13085938 299.91992188 C-102.93324435 299.88492985 -106.73531595 299.8555208 -110.5378418 299.84204102 C-114.22482778 299.82643549 -117.91091264 299.78613887 -121.59765625 299.7421875 C-123.27336449 299.74505013 -123.27336449 299.74505013 -124.98292542 299.74797058 C-139.398168 299.52802025 -150.12743364 294.93635267 -160.71484375 285.328125 C-168.27011207 277.50833962 -172.79272174 266.81096954 -172.83467102 255.99719238 C-172.84182632 254.73008423 -172.84898163 253.46297607 -172.85635376 252.1574707 C-172.85919389 250.75537134 -172.86190564 249.35327171 -172.86450195 247.95117188 C-172.87076958 246.47253257 -172.87741665 244.99389482 -172.88441467 243.51525879 C-172.90543036 238.65992321 -172.91581804 233.80458742 -172.92578125 228.94921875 C-172.92983041 227.27416467 -172.93394738 225.59911075 -172.93813133 223.92405701 C-172.95718134 216.04956125 -172.97141005 208.17507484 -172.9797433 200.30056047 C-172.98950081 191.23124889 -173.0157821 182.16218234 -173.05624419 173.09295702 C-173.08648898 166.07108884 -173.10122027 159.04929054 -173.10452431 152.02735853 C-173.10686621 147.83954454 -173.11571306 143.65199236 -173.14098549 139.46424866 C-173.16441671 135.51774151 -173.16843972 131.57166572 -173.15822411 127.62510681 C-173.15773219 126.18527789 -173.16394987 124.74542664 -173.17778015 123.30566406 C-173.32042252 107.56114543 -169.21350301 96.03671071 -158.5625 84.48046875 C-149.92845014 76.13810977 -138.8718189 71.9049426 -126.96289062 71.9921875 C-125.62000977 72.01732422 -125.62000977 72.01732422 -124.25 72.04296875 C-123.32767578 72.05199219 -122.40535156 72.06101562 -121.45507812 72.0703125 C-119.19894191 72.09369215 -116.94336316 72.12645959 -114.6875 72.16796875 C-114.60612793 71.48798828 -114.52475586 70.80800781 -114.44091797 70.10742188 C-111.91147565 50.57559214 -99.58956128 31.56492132 -84.359375 19.43359375 C-74.17583501 11.71416206 -63.36987389 5.69579086 -50.875 2.79296875 C-50.21338867 2.63715332 -49.55177734 2.48133789 -48.87011719 2.32080078 C-33.0207662 -0.93178112 -16.09019264 0.00523117 0 0 Z " fill="#7788FC" transform="translate(216.6875,227.83203125)"/>
<path d="M0 0 C0 0.99 0 1.98 0 3 C0.495 3.495 0.495 3.495 1 4 C1.38800781 3.51917969 1.77601562 3.03835938 2.17578125 2.54296875 C4.54088647 0.54250502 6.12691453 0.51123932 9.1875 0.3125 C10.08855469 0.24675781 10.98960938 0.18101562 11.91796875 0.11328125 C12.60503906 0.07589844 13.29210937 0.03851563 14 0 C14.495 1.98 14.495 1.98 15 4 C10.25 7 10.25 7 8 7 C6.61767557 8.62626404 5.28062485 10.2925002 4 12 C7.73440366 12 8.81463026 10.96544091 12 9 C14.48749192 7.73371499 16.99103465 6.50437061 19.5 5.28125 C22.03280146 4.05492936 22.03280146 4.05492936 24.30078125 2.390625 C27.8699357 0.55181315 31.25364408 0.39952213 35.1875 0.25 C35.91130859 0.20746094 36.63511719 0.16492188 37.38085938 0.12109375 C42.70708738 -0.14645631 42.70708738 -0.14645631 45 1 C47.00370604 0.68972072 49.00338427 0.35303926 51 0 C52.8756369 -0.0860847 54.75373697 -0.1278143 56.63134766 -0.12939453 C58.25431259 -0.13412277 58.25431259 -0.13412277 59.9100647 -0.13894653 C61.06638397 -0.1369223 62.22270325 -0.13489807 63.4140625 -0.1328125 C65.22310562 -0.13424759 65.22310562 -0.13424759 67.06869507 -0.13571167 C69.61887667 -0.13639128 72.16906002 -0.13455224 74.71923828 -0.13037109 C78.59020969 -0.12504784 82.46106358 -0.13030905 86.33203125 -0.13671875 C88.81770859 -0.13605738 91.30338585 -0.13477501 93.7890625 -0.1328125 C94.93323639 -0.13483673 96.07741028 -0.13686096 97.2562561 -0.13894653 C112.96569534 -0.09396593 112.96569534 -0.09396593 119 1 C119.33 1.66 119.66 2.32 120 3 C120.99 3 121.98 3 123 3 C135.11792006 5.46466171 143.5619851 11.12853551 150.7109375 21.4765625 C152.39543289 24.3879158 153.79665104 26.93928784 154.43359375 30.26171875 C154.92776679 33.16723188 154.92776679 33.16723188 156.51014709 36.28962708 C158.81135938 42.38711777 158.42606154 48.67014303 158.40405273 55.10424805 C158.40976338 56.52274613 158.41673031 57.94123962 158.42485046 59.35972595 C158.44272682 63.19478033 158.4416232 67.02960518 158.43590808 70.86468863 C158.4328062 74.07741066 158.4389202 77.29008923 158.44494683 80.50280505 C158.45897422 88.09101848 158.45744751 95.67911929 158.44604492 103.26733398 C158.43458342 111.06652347 158.44861014 118.86536829 158.4754414 126.66451234 C158.49768388 133.38416627 158.5042161 140.10371271 158.49836498 146.8234008 C158.49501237 150.82616001 158.49729564 154.82869874 158.51461601 158.83142662 C158.53021862 162.60157117 158.52598443 166.37121088 158.50731087 170.14133644 C158.50193722 172.16291748 158.51603986 174.18452191 158.53100586 176.20605469 C158.42940485 188.96309407 155.20997831 199.48214702 148 210 C147.4225 210.886875 146.845 211.77375 146.25 212.6875 C137.83798894 221.33317803 126.0106365 227.88173108 113.80149841 228.24723816 C112.28232216 228.2559661 110.76305764 228.25396749 109.24389648 228.24291992 C108.40347116 228.24478428 107.56304585 228.24664864 106.69715309 228.24856949 C103.92170693 228.25218089 101.14651741 228.24146681 98.37109375 228.23046875 C96.40075187 228.22978095 94.43040957 228.22988414 92.46006775 228.23072815 C87.20350849 228.2299937 81.94706991 228.21600757 76.69054413 228.19804382 C73.43955112 228.18750665 70.18856413 228.17988528 66.93756104 228.17321777 C53.21661964 228.14438663 39.49595337 228.08808701 25.77518463 228.01436615 C23.17196532 228.0008902 20.56874543 227.98897023 17.96551514 227.97784424 C9.89886088 227.94287137 1.83305738 227.88940975 -6.23312378 227.78945923 C-8.46704949 227.76347096 -10.70105372 227.74344239 -12.93508911 227.72982788 C-31.03231351 227.60443094 -44.10981958 225.79051056 -58.02734375 213.16015625 C-65.58261207 205.34037087 -70.10522174 194.64300079 -70.14717102 183.82922363 C-70.15432632 182.56211548 -70.16148163 181.29500732 -70.16885376 179.98950195 C-70.17169389 178.58740259 -70.17440564 177.18530296 -70.17700195 175.78320312 C-70.18326958 174.30456382 -70.18991665 172.82592607 -70.19691467 171.34729004 C-70.21793036 166.49195446 -70.22831804 161.63661867 -70.23828125 156.78125 C-70.24233041 155.10619592 -70.24644738 153.431142 -70.25063133 151.75608826 C-70.26968134 143.8815925 -70.28391005 136.00710609 -70.2922433 128.13259172 C-70.30200081 119.06328014 -70.3282821 109.99421359 -70.36874419 100.92498827 C-70.39898898 93.90312009 -70.41372027 86.88132179 -70.41702431 79.85938978 C-70.41936621 75.67157579 -70.42821306 71.48402361 -70.45348549 67.29627991 C-70.47691671 63.34977276 -70.48093972 59.40369697 -70.47072411 55.45713806 C-70.47023219 54.01730914 -70.47644987 52.57745789 -70.49028015 51.13769531 C-70.63292252 35.39317668 -66.52600301 23.86874196 -55.875 12.3125 C-49.08887601 5.72257347 -40.13623962 1.04616195 -30.625 0.68359375 C-29.02205078 0.62075195 -29.02205078 0.62075195 -27.38671875 0.55664062 C-26.26910156 0.51732422 -25.15148437 0.47800781 -24 0.4375 C-22.91332031 0.39431641 -21.82664063 0.35113281 -20.70703125 0.30664062 C-13.80145202 0.04675323 -6.91016062 -0.05452657 0 0 Z " fill="#4141C0" transform="translate(114,300)"/>
<path d="M0 0 C15.53458557 -0.09379239 31.06914972 -0.16414913 46.60395241 -0.20724869 C53.81842182 -0.22780004 61.03271444 -0.25577679 68.24707031 -0.30175781 C74.54130603 -0.341855 80.83541359 -0.36748666 87.1297735 -0.37635398 C90.45711276 -0.38153057 93.78379761 -0.3956958 97.11107254 -0.42292023 C123.77809645 -0.63231637 123.77809645 -0.63231637 135 4 C135.80923416 4.32524658 136.61846832 4.65049316 137.45222473 4.9855957 C139.39815968 5.80437846 141.25484931 6.70902347 143.125 7.6875 C143.78894775 8.0285376 144.45289551 8.3695752 145.13696289 8.72094727 C166.20562129 19.88209375 179.7244285 37.33677144 187.6875 59.5 C190.86470189 69.87928418 191.29881299 80.07290493 191.29052734 90.85009766 C191.29652413 92.4201794 191.30333229 93.99025821 191.31088257 95.56033325 C191.32843544 99.79624143 191.33323347 104.03206862 191.33451414 108.26800966 C191.33594271 110.92374146 191.34022562 113.57945313 191.34550858 116.2351799 C191.36397533 125.52675415 191.37218364 134.81827129 191.37060547 144.10986328 C191.36940586 152.72755227 191.39048141 161.3449901 191.4220928 169.96261561 C191.4483761 177.39659905 191.4589677 184.83050108 191.45769465 192.26453054 C191.45718843 196.6887996 191.46268076 201.11284526 191.48405075 205.53706741 C191.50363709 209.70530425 191.50342087 213.8731093 191.48901749 218.04136276 C191.48695309 219.55649203 191.49148564 221.07164982 191.5037384 222.58673096 C191.69495312 247.90507654 182.93609369 270.11575355 165.25 288.3125 C144.51070585 308.70039414 119.11981612 312.48103351 91.17407227 312.34057617 C88.79750581 312.33972853 86.42093856 312.34020772 84.04437256 312.34190369 C77.63423827 312.3427597 71.22427453 312.32519797 64.81417966 312.30418181 C58.78132397 312.2872607 52.74847408 312.28430552 46.71559965 312.2812262 C34.77773443 312.27468366 22.83993122 312.25478265 10.90209961 312.22631836 C-0.68448581 312.19872055 -12.2710543 312.1775151 -23.85766602 312.16479492 C-24.5735911 312.16400675 -25.28951618 312.16321858 -26.02713596 312.16240653 C-29.61923751 312.15849101 -33.21133918 312.15469998 -36.80344093 312.15097082 C-66.53566879 312.11994347 -96.2678304 312.06694285 -126 312 C-126 311.67 -126 311.34 -126 311 C-83.75035304 309.92443351 -41.51785115 309.87388415 0.74240291 309.92797339 C9.85096568 309.93941693 18.95952947 309.94471497 28.06809771 309.94967639 C46.71207331 309.9599603 65.35603545 309.97739536 84 310 C83.04738281 309.66371582 82.09476563 309.32743164 81.11328125 308.98095703 C79.8463253 308.53165691 78.57939983 308.08227084 77.3125 307.6328125 C76.07113281 307.19340332 74.82976562 306.75399414 73.55078125 306.30126953 C54.57246063 299.34620566 40.00733914 285.38116798 30 268 C29.53722656 267.19949219 29.07445312 266.39898438 28.59765625 265.57421875 C22.71227231 254.64422 19.83871989 242.42931807 19.86869812 230.06584167 C19.86552455 228.89395537 19.86552455 228.89395537 19.86228687 227.6983946 C19.8563122 225.08952421 19.85728523 222.48070255 19.8581543 219.87182617 C19.85512094 217.99706948 19.85159899 216.12231353 19.84762573 214.24755859 C19.83974699 210.21251023 19.83459554 206.17747068 19.83133507 202.142416 C19.82540856 195.74809971 19.8088504 189.35383861 19.78999329 182.95954895 C19.78365593 180.7666922 19.7773303 178.57383541 19.77101612 176.38097858 C19.76785031 175.28276331 19.7646845 174.18454803 19.76142275 173.0530535 C19.71943164 158.17250456 19.68640421 143.29198117 19.67407227 128.41137695 C19.66566296 118.36713049 19.6430643 108.32302079 19.6047166 98.27884275 C19.58504811 92.97145092 19.57252049 87.66426308 19.57755089 82.3568325 C19.58223477 77.35391703 19.56818999 72.35138682 19.54053879 67.34854889 C19.53368871 65.52544482 19.53343266 63.70230037 19.54073906 61.87919807 C19.5943172 46.99138971 18.0208105 32.48960114 11.1875 19 C10.84783203 18.2999585 10.50816406 17.59991699 10.15820312 16.87866211 C7.71101912 11.99394209 4.86251167 7.68692738 1.25 3.56640625 C0 2 0 2 0 0 Z " fill="#6351E1" transform="translate(365,258)"/>
<path d="M0 0 C1.85782486 1.49081586 3.69313566 3.01031238 5.5 4.5625 C6.28632813 5.23667969 7.07265625 5.91085938 7.8828125 6.60546875 C24.27119307 21.82325071 33.17827853 43.37715934 34.42773438 65.47558594 C35.24316637 88.49501065 26.83261771 110.28391682 11.6484375 127.37280273 C-3.31560847 143.35614503 -24.54740191 153.56662277 -46.5 154.5625 C-47.16386719 154.60246094 -47.82773438 154.64242187 -48.51171875 154.68359375 C-71.72075823 155.41289813 -93.06091357 146.46506557 -110.1796875 131.16796875 C-125.47998323 116.69414329 -135.87170082 96.98724899 -136.81640625 75.75 C-137.33824555 56.41541176 -134.05444614 41.40349159 -124.5 24.5625 C-124.01660156 23.71042969 -123.53320312 22.85835937 -123.03515625 21.98046875 C-111.36564077 3.20776994 -92.54370737 -9.37179788 -71.34008789 -14.94604492 C-46.30482532 -20.68843646 -20.66454285 -15.00015039 0 0 Z " fill="#988BF9" transform="translate(294.5,46.4375)"/>
<path d="M0 0 C14.35908196 10.53292536 24.58950002 27.57279758 28 45 C28.41487089 49.30175167 28.47780172 53.555417 28.4375 57.875 C28.42920166 59.02323242 28.42090332 60.17146484 28.41235352 61.35449219 C28.24700004 69.63275776 27.47999476 76.40822573 24 84 C23.525625 85.14082031 23.05125 86.28164062 22.5625 87.45703125 C18.45649563 96.56722845 13.0962527 103.08913562 6 110 C5.30777344 110.68964844 4.61554688 111.37929687 3.90234375 112.08984375 C-9.89471362 125.03697972 -28.66577883 129.70859161 -47.078125 129.30859375 C-66.79867381 128.38251186 -83.82326134 118.91161203 -97.25 104.6875 C-110.74812952 88.70505216 -115.47732774 69.52157167 -114 49 C-111.38731183 29.38147323 -100.54752672 12.06315056 -85 0 C-58.89689282 -18.35178322 -26.040452 -17.65734071 0 0 Z " fill="#6866F1" transform="translate(499,100)"/>
<path d="M0 0 C14.35908196 10.53292536 24.58950002 27.57279758 28 45 C28.41487615 49.30180617 28.47624087 53.55539333 28.4375 57.875 C28.43049072 59.58755981 28.43049072 59.58755981 28.42333984 61.3347168 C28.27899747 69.55225717 27.35121447 76.42919068 24 84 C23.33174444 85.66603023 22.66460153 87.33250876 22 89 C21.34 87.68 20.68 86.36 20 85 C20.66 84.67 21.32 84.34 22 84 C21.67 82.68 21.34 81.36 21 80 C19.68 80.33 18.36 80.66 17 81 C17 80.01 17 79.02 17 78 C16.34 78 15.68 78 15 78 C14.67 76.35 14.34 74.7 14 73 C12.68 73 11.36 73 10 73 C8 70 8 70 8 68 C7.34 67.67 6.68 67.34 6 67 C6.66 65.02 7.32 63.04 8 61 C7.01 61 6.02 61 5 61 C3.5625 59.3125 3.5625 59.3125 2 57 C1.29875 56.195625 0.5975 55.39125 -0.125 54.5625 C-2 52 -2 52 -2.4375 49.3125 C-2.7159375 48.1678125 -2.7159375 48.1678125 -3 47 C-4.6635479 46.32558869 -6.33066942 45.6599679 -8 45 C-10.125 42.0625 -10.125 42.0625 -12 39 C-12.74056641 38.28263672 -12.74056641 38.28263672 -13.49609375 37.55078125 C-15.15755939 35.83752967 -15.95555206 34.29118558 -16.9375 32.125 C-18.58692928 28.68078944 -20.50454048 25.91136944 -23 23 C-23.66 22.01 -24.32 21.02 -25 20 C-26.485 19.01 -26.485 19.01 -28 18 C-27.505 16.515 -27.505 16.515 -27 15 C-30.73942719 15.60313342 -33.74706776 16.67053878 -37.125 18.375 C-37.97320312 18.79523438 -38.82140625 19.21546875 -39.6953125 19.6484375 C-41.88685645 20.93364802 -43.43480808 22.00514756 -45 24 C-45 24.99 -45 25.98 -45 27 C-46.1875 29.125 -46.1875 29.125 -48 31 C-48.763125 31.144375 -49.52625 31.28875 -50.3125 31.4375 C-53.28549455 31.84037321 -53.28549455 31.84037321 -56 34.5 C-59 37 -59 37 -61.4375 37.4375 C-64.94054311 38.20646068 -66.6851003 40.19199133 -69.2890625 42.57421875 C-71.35780293 44.29816911 -73.47655143 45.10937109 -76 46 C-76.495 46.99 -76.495 46.99 -77 48 C-77.66 48.66 -78.32 49.32 -79 50 C-79 51.32 -79 52.64 -79 54 C-79.522688 56.96189868 -79.81036236 57.81036236 -82 60 C-82 59.01 -82 58.02 -82 57 C-83.485 56.505 -83.485 56.505 -85 56 C-85 55.34 -85 54.68 -85 54 C-85.7425 54.226875 -86.485 54.45375 -87.25 54.6875 C-90.76547318 55.08698559 -91.30050431 54.12687539 -94 52 C-97.09633308 51.30490482 -99.82825442 51 -103 51 C-103.928125 50.4740625 -103.928125 50.4740625 -104.875 49.9375 C-107.39794571 48.5810548 -107.39794571 48.5810548 -112 50 C-112.33 55.94 -112.66 61.88 -113 68 C-113.33 68 -113.66 68 -114 68 C-114.89901633 45.02513825 -110.34698479 26.92547658 -95 9 C-69.36023133 -17.62119522 -30.08647777 -20.4008436 0 0 Z M3 55 C4 57 4 57 4 57 Z " fill="#7E79F7" transform="translate(499,100)"/>
<path d="M0 0 C32.67 0 65.34 0 99 0 C99 7.92 99 15.84 99 24 C87.45 24 75.9 24 64 24 C64 58.98 64 93.96 64 130 C54.1 130 44.2 130 34 130 C34 94.69 34 59.38 34 23 C22.78 23 11.56 23 0 23 C0 15.41 0 7.82 0 0 Z " fill="#FAFAFD" transform="translate(109,349)"/>
<path d="M0 0 C0.99 0.33 1.98 0.66 3 1 C2.15999233 7.57808821 -2.01481086 11.92221067 -6 17 C-6.59941406 17.77988281 -7.19882812 18.55976563 -7.81640625 19.36328125 C-21.32298825 35.78705159 -42.19703174 45.07614172 -62.9375 47.75 C-64.29023208 47.85405631 -65.64466556 47.9385154 -67 48 C-67.99580078 48.05994141 -67.99580078 48.05994141 -69.01171875 48.12109375 C-92.13314007 48.84764488 -113.92008976 39.99380215 -130.78515625 24.4296875 C-136.22678169 19.23428531 -141.63375632 13.81770872 -145 7 C-145 6.01 -145 5.02 -145 4 C-142.49172809 2.46267205 -140.75229829 1.83811303 -137.83984375 2.46484375 C-135.52681873 3.24100073 -133.26335981 4.08969075 -131 5 C-129.6696875 5.495 -129.6696875 5.495 -128.3125 6 C-126.49068207 6.78781316 -124.70553781 7.66043989 -122.9375 8.5625 C-120.21201268 10.02705634 -120.21201268 10.02705634 -117.9375 10.5 C-116 11 -116 11 -113.375 12.625 C-112.59125 13.07875 -111.8075 13.5325 -111 14 C-110.34 13.67 -109.68 13.34 -109 13 C-109 13.66 -109 14.32 -109 15 C-107.6078125 14.938125 -107.6078125 14.938125 -106.1875 14.875 C-103 15 -103 15 -100 17 C-99.01 17 -98.02 17 -97 17 C-93.5 18 -93.5 18 -90 19 C-89.01 19 -88.02 19 -87 19 C-85.53909212 17.4645122 -85.53909212 17.4645122 -84.3125 15.5 C-83.87550781 14.8503125 -83.43851563 14.200625 -82.98828125 13.53125 C-82.66214844 13.0259375 -82.33601563 12.520625 -82 12 C-83.98 12.99 -83.98 12.99 -86 14 C-86 12.68 -86 11.36 -86 10 C-74.05696203 9.76582278 -74.05696203 9.76582278 -70.125 12.125 C-66.93809961 13.4372531 -64.32244834 12.61526821 -61 12 C-60.34 12 -59.68 12 -59 12 C-58.67 11.34 -58.34 10.68 -58 10 C-58.99 9.01 -58.99 9.01 -60 8 C-60.99 8 -61.98 8 -63 8 C-62.67 7.34 -62.34 6.68 -62 6 C-61.34 6 -60.68 6 -60 6 C-59.67 5.34 -59.34 4.68 -59 4 C-58.01 4.66 -57.02 5.32 -56 6 C-54.66431979 5.67619874 -53.33076989 5.34342449 -52 5 C-51.01 5.99 -51.01 5.99 -50 7 C-49.01 7 -48.02 7 -47 7 C-42 7 -42 7 -40 8 C-39.0409375 7.7525 -39.0409375 7.7525 -38.0625 7.5 C-36 7 -36 7 -33 8 C-32.34 7.67 -31.68 7.34 -31 7 C-30.01 7.33 -29.02 7.66 -28 8 C-26.66431979 7.67619874 -25.33076989 7.34342449 -24 7 C-23.01 7.495 -23.01 7.495 -22 8 C-20.33032028 7.3409159 -18.66392045 6.67349161 -17 6 C-15.68 6 -14.36 6 -13 6 C-12.01 5.34 -11.02 4.68 -10 4 C-8.824375 4.3403125 -8.824375 4.3403125 -7.625 4.6875 C-6.75875 4.790625 -5.8925 4.89375 -5 5 C-2.16588845 2.666508 -2.16588845 2.666508 0 0 Z M-11 6 C-10.67 6.66 -10.34 7.32 -10 8 C-9.67 7.34 -9.34 6.68 -9 6 C-9.66 6 -10.32 6 -11 6 Z " fill="#6F66E4" transform="translate(315,153)"/>
<path d="M0 0 C0.86882812 -0.02578125 1.73765625 -0.0515625 2.6328125 -0.078125 C3.74269531 0.08429688 3.74269531 0.08429688 4.875 0.25 C5.865 1.735 5.865 1.735 6.875 3.25 C7.205 2.59 7.535 1.93 7.875 1.25 C8.865 1.58 9.855 1.91 10.875 2.25 C10.875 3.24 10.875 4.23 10.875 5.25 C10.215 5.25 9.555 5.25 8.875 5.25 C8.58625 6.11625 8.2975 6.9825 8 7.875 C7.443125 9.545625 7.443125 9.545625 6.875 11.25 C6.4109375 12.673125 6.4109375 12.673125 5.9375 14.125 C5.10541023 16.57232286 4.25864509 19.00858612 3.375 21.4375 C3.1378125 22.09105469 2.900625 22.74460937 2.65625 23.41796875 C1.875 25.25 1.875 25.25 -0.125 28.25 C-1.115 28.58 -2.105 28.91 -3.125 29.25 C-1.805 29.25 -0.485 29.25 0.875 29.25 C1.535 28.59 2.195 27.93 2.875 27.25 C4.875 25.25 4.875 25.25 7.875 24.25 C8.37 25.24 8.37 25.24 8.875 26.25 C7.875 27.91666667 6.875 29.58333333 5.875 31.25 C6.37 32.24 6.37 32.24 6.875 33.25 C4.97480313 34.91267226 3.07380068 36.5742502 1.16796875 38.23046875 C-0.32631304 39.5465568 -1.80398864 40.88181941 -3.26171875 42.23828125 C-3.93847656 42.86089844 -4.61523438 43.48351562 -5.3125 44.125 C-5.92480469 44.69992188 -6.53710938 45.27484375 -7.16796875 45.8671875 C-9.47061615 47.49420782 -11.35470845 47.8768001 -14.125 48.25 C-14.125 48.91 -14.125 49.57 -14.125 50.25 C-15.115 50.58 -16.105 50.91 -17.125 51.25 C-18.25019288 52.37519288 -19.36456008 53.51237533 -20.4375 54.6875 C-22.49846776 56.59580348 -24.68782003 57.85732573 -27.125 59.25 C-27.8675 59.765625 -28.61 60.28125 -29.375 60.8125 C-34.68591899 63.5886622 -40.27471625 64.97067169 -46.125 63.25 C-47.115 63.25 -48.105 63.25 -49.125 63.25 C-50.053125 62.7240625 -50.053125 62.7240625 -51 62.1875 C-53.52294571 60.8310548 -53.52294571 60.8310548 -58.125 62.25 C-58.455 68.19 -58.785 74.13 -59.125 80.25 C-59.455 80.25 -59.785 80.25 -60.125 80.25 C-61.02401633 57.27513825 -56.47198479 39.17547658 -41.125 21.25 C-30.67648296 10.40153973 -15.55051004 0.2785166 0 0 Z " fill="#7883F7" transform="translate(445.125,87.75)"/>
<path d="M0 0 C8.41328413 2.94464945 8.41328413 2.94464945 12 6 C12.99 6.66 13.98 7.32 15 8 C16.010625 8.680625 17.02125 9.36125 18.0625 10.0625 C21.2130956 12.2134377 21.2130956 12.2134377 24.75 13.3125 C27 14 27 14 29.875 15.9375 C34.89393561 19.2499975 40.12828521 20.31151631 45.94921875 21.4375 C48 22 48 22 51 24 C53.11831178 24.20425074 53.11831178 24.20425074 55.375 24.0625 C58.77586849 23.98582986 61.6740492 24.23247289 65 25 C69.68186164 25.79793535 73.33345187 26.02436422 78 25 C80.28853025 24.96220776 82.57088448 25.00105623 84.859375 25.03515625 C87.11817923 25.06382298 87.11817923 25.06382298 89.75 24.4375 C92 24 92 24 94.375 24.5625 C97.98041002 25.16340167 100.56927989 24.14357337 104 23 C107 22 107 22 110 22 C111.57556706 21.54284064 113.13800522 21.03895471 114.6875 20.5 C115.49574219 20.2215625 116.30398438 19.943125 117.13671875 19.65625 C117.75160156 19.4396875 118.36648438 19.223125 119 19 C117.75198182 27.37955065 111.9327328 31.98410061 105.453125 36.953125 C89.55177189 47.77357238 69.58383683 51.63106669 50.703125 48.34765625 C31.47549931 44.31687696 15.05854553 33.22478498 3.953125 17.01171875 C-2.1142304 7.26754598 -2.1142304 7.26754598 -1 1 C-0.67 0.67 -0.34 0.34 0 0 Z " fill="#574EDC" transform="translate(392,180)"/>
<path d="M0 0 C0.66 0.33 1.32 0.66 2 1 C1.7525 1.556875 1.505 2.11375 1.25 2.6875 C0.71646324 5.24050936 0.71646324 5.24050936 2.9375 7.75 C3.9584375 8.86375 3.9584375 8.86375 5 10 C4.01 10.33 3.02 10.66 2 11 C1.67 11.66 1.34 12.32 1 13 C1.66 13.33 2.32 13.66 3 14 C2.34 14 1.68 14 1 14 C1 14.66 1 15.32 1 16 C0.34 16 -0.32 16 -1 16 C-0.505 17.485 -0.505 17.485 0 19 C-0.28604898 20.67542976 -0.61781233 22.34385343 -1 24 C-1 24.66 -1 25.32 -1 26 C-1.66 26 -2.32 26 -3 26 C-2.505 27.485 -2.505 27.485 -2 29 C-3.00987811 31.66240593 -4.49500291 33.71338654 -6.125 36.0625 C-8.26901773 38.84064436 -8.26901773 38.84064436 -8 42 C-9.31129922 43.35500919 -10.64691687 44.68671343 -12 46 C-12.68268138 47.32520503 -13.3507041 48.65812182 -14 50 C-15.625 51.75 -15.625 51.75 -17 53 C-16.34 54.65 -15.68 56.3 -15 58 C-14.01 58 -13.02 58 -12 58 C-9 58 -9 58 -6 59 C-5.01 58.67 -4.02 58.34 -3 58 C-3.33 58.99 -3.66 59.98 -4 61 C-1.525 60.505 -1.525 60.505 1 60 C1 60.99 1 61.98 1 63 C0.01 63.495 0.01 63.495 -1 64 C-1.33 64.66 -1.66 65.32 -2 66 C-2.33 65.34 -2.66 64.68 -3 64 C-6.11785113 64.64644661 -6.11785113 64.64644661 -7 67 C-7.66 67 -8.32 67 -9 67 C-9 67.66 -9 68.32 -9 69 C-9.598125 69.103125 -10.19625 69.20625 -10.8125 69.3125 C-13.28243264 70.08876455 -14.32251235 71.07088921 -16 73 C-16.66 72.67 -17.32 72.34 -18 72 C-18.33 72.99 -18.66 73.98 -19 75 C-21.58072903 77.32265612 -22.45176068 78 -26 78 C-26.33 78.99 -26.66 79.98 -27 81 C-30 81 -30 81 -32 80 C-32.763125 80.37125 -33.52625 80.7425 -34.3125 81.125 C-35.199375 81.41375 -36.08625 81.7025 -37 82 C-38.65 81.01 -40.3 80.02 -42 79 C-42 83.95 -42 88.9 -42 94 C-42.33 94 -42.66 94 -43 94 C-47.74478787 71.70335457 -43.02256905 50.42875494 -32 31 C-31.51660156 30.14792969 -31.03320312 29.29585937 -30.53515625 28.41796875 C-23.15825005 16.55077181 -12.54272646 6.27136323 0 0 Z " fill="#9BA6FE" transform="translate(202,40)"/>
<path d="M0 0 C0.99 0.33 1.98 0.66 3 1 C1.79777863 10.41457862 -7.32475109 19.61924736 -14 26 C-17.4751773 28.09542231 -17.4751773 28.09542231 -20.0625 27.625 C-20.701875 27.41875 -21.34125 27.2125 -22 27 C-23.95844415 27 -25.91701846 27.01993518 -27.875 27.0625 C-31 27 -31 27 -33.6875 26.375 C-36.26830141 25.68722576 -36.26830141 25.68722576 -39 28 C-41.01584651 27.38290413 -43.01751285 26.71706982 -45 26 C-45.99 26.495 -45.99 26.495 -47 27 C-47.66 26.34 -48.32 25.68 -49 25 C-49.99 25 -50.98 25 -52 25 C-68.3 25 -68.3 25 -75.9375 23.375 C-78.18708867 22.79523366 -78.18708867 22.79523366 -81 24 C-81.66 23.34 -82.32 22.68 -83 22 C-83.99 22 -84.98 22 -86 22 C-86.33 21.01 -86.66 20.02 -87 19 C-86.00390625 17.17578125 -86.00390625 17.17578125 -84.5625 15.3125 C-84.08941406 14.68988281 -83.61632812 14.06726563 -83.12890625 13.42578125 C-82.75636719 12.95527344 -82.38382813 12.48476562 -82 12 C-83.98 12.99 -83.98 12.99 -86 14 C-86 12.68 -86 11.36 -86 10 C-74.05696203 9.76582278 -74.05696203 9.76582278 -70.125 12.125 C-66.93809961 13.4372531 -64.32244834 12.61526821 -61 12 C-60.34 12 -59.68 12 -59 12 C-58.67 11.34 -58.34 10.68 -58 10 C-58.66 9.34 -59.32 8.68 -60 8 C-60.99 8 -61.98 8 -63 8 C-62.67 7.34 -62.34 6.68 -62 6 C-61.34 6 -60.68 6 -60 6 C-59.67 5.34 -59.34 4.68 -59 4 C-58.01 4.66 -57.02 5.32 -56 6 C-54.66431979 5.67619874 -53.33076989 5.34342449 -52 5 C-51.34 5.66 -50.68 6.32 -50 7 C-49.01 7 -48.02 7 -47 7 C-42 7 -42 7 -40 8 C-39.0409375 7.7525 -39.0409375 7.7525 -38.0625 7.5 C-36 7 -36 7 -33 8 C-32.34 7.67 -31.68 7.34 -31 7 C-30.01 7.33 -29.02 7.66 -28 8 C-26.66431979 7.67619874 -25.33076989 7.34342449 -24 7 C-23.01 7.495 -23.01 7.495 -22 8 C-20.33032028 7.3409159 -18.66392045 6.67349161 -17 6 C-15.68 6 -14.36 6 -13 6 C-12.01 5.34 -11.02 4.68 -10 4 C-8.824375 4.3403125 -8.824375 4.3403125 -7.625 4.6875 C-6.75875 4.790625 -5.8925 4.89375 -5 5 C-2.16588845 2.666508 -2.16588845 2.666508 0 0 Z M-11 6 C-10.67 6.66 -10.34 7.32 -10 8 C-9.67 7.34 -9.34 6.68 -9 6 C-9.66 6 -10.32 6 -11 6 Z " fill="#8576EC" transform="translate(315,153)"/>
<path d="M0 0 C1.32 1.32 2.64 2.64 4 4 C3.01 4.99 2.02 5.98 1 7 C1.61875 7.28875 2.2375 7.5775 2.875 7.875 C5 9 5 9 7 11 C7.66 10.67 8.32 10.34 9 10 C9.66 10.66 10.32 11.32 11 12 C11.99 12 12.98 12 14 12 C16.1875 13.5 16.1875 13.5 18 15 C18.66 14.67 19.32 14.34 20 14 C20.825 14.309375 21.65 14.61875 22.5 14.9375 C26.98387742 16.29867707 31.34828192 16.71387753 36 16 C38.42143446 14.49398589 39.72170567 13.55658865 41 11 C42.98 11 44.96 11 47 11 C47.28875 11.7425 47.5775 12.485 47.875 13.25 C49.82175342 18.02286107 49.82175342 18.02286107 53 22 C51 25 51 25 49.0546875 25.51171875 C48.33539063 25.56972656 47.61609375 25.62773437 46.875 25.6875 C45.59625 25.790625 44.3175 25.89375 43 26 C43 26.66 43 27.32 43 28 C42.01 28 41.02 28 40 28 C40.33 26.68 40.66 25.36 41 24 C40.401875 24.33 39.80375 24.66 39.1875 25 C37 26 37 26 34 26 C31.32601524 27.93897879 31.32601524 27.93897879 29 30 C28.01 29.01 28.01 29.01 27 28 C26.0409375 28.2475 26.0409375 28.2475 25.0625 28.5 C24.0415625 28.7475 24.0415625 28.7475 23 29 C22.01 28.34 21.02 27.68 20 27 C17.84725052 27.30840599 17.84725052 27.30840599 16 28 C15.34 27.01 14.68 26.02 14 25 C11.58392583 24.20201782 11.58392583 24.20201782 8.875 23.8125 C7.50988281 23.57466797 7.50988281 23.57466797 6.1171875 23.33203125 C5.06917969 23.16767578 5.06917969 23.16767578 4 23 C3.505 21.515 3.505 21.515 3 20 C2.34 19.67 1.68 19.34 1 19 C0.67 19.66 0.34 20.32 0 21 C-0.50789063 20.54367188 -1.01578125 20.08734375 -1.5390625 19.6171875 C-3.63352591 17.86787911 -5.61216579 16.32561501 -8 15 C-11.2006714 15.56673801 -11.2006714 15.56673801 -14 17 C-15.66965451 16.68197057 -17.33678518 16.35015049 -19 16 C-22.38248279 16.92249531 -23.08845601 18.13402426 -25.0625 21.125 C-25.701875 22.07375 -26.34125 23.0225 -27 24 C-27.99 24 -28.98 24 -30 24 C-30.33 24.66 -30.66 25.32 -31 26 C-32.859375 25.76171875 -32.859375 25.76171875 -35 25 C-38.10122235 20.45345489 -39.56310544 15.49027801 -39 10 C-34.05852062 7.36454433 -31.70805632 6.75205634 -26.125 7.5625 C-22.82508204 7.99845246 -20.24904386 7.83546842 -17 7 C-15.33333333 7 -13.66666667 7 -12 7 C-10.48546075 6.36705822 -8.98698441 5.69521349 -7.5 5 C-3.22222222 3 -3.22222222 3 -1 3 C-0.67 2.01 -0.34 1.02 0 0 Z " fill="#8683F8" transform="translate(201,128)"/>
<path d="M0 0 C13.85600093 7.82428024 22.19121375 22.65299782 28 37 C28.38027344 37.87914062 28.76054688 38.75828125 29.15234375 39.6640625 C30.10280035 42.28329313 29.95233221 43.42870302 29 46 C28.67 46 28.34 46 28 46 C26.28824104 48.02005963 24.63483437 50.08196662 22.984375 52.15234375 C20.6622809 54.31445105 19.11018278 54.6621698 16 55 C15.34 54.01 14.68 53.02 14 52 C13.01 52 12.02 52 11 52 C10.71125 51.38125 10.4225 50.7625 10.125 50.125 C9.06279958 47.86674235 9.06279958 47.86674235 7 46 C2.89231214 39.19664197 1.94274022 32.81723524 1 25 C0.8031703 23.58169765 0.60386061 22.16373773 0.40234375 20.74609375 C0.20489837 19.31000981 0.00827144 17.87381309 -0.1875 16.4375 C-0.28369629 15.75880859 -0.37989258 15.08011719 -0.47900391 14.38085938 C-0.92009863 10.96515888 -1.02281423 8.29146235 0 5 C-0.3062434 3.66018514 -0.63451555 2.32488113 -1 1 C-0.67 0.67 -0.34 0.34 0 0 Z " fill="#9B81FE" transform="translate(523,276)"/>
<path d="M0 0 C1.43739513 -0.02712066 2.87493863 -0.04645067 4.3125 -0.0625 C5.51326172 -0.07990234 5.51326172 -0.07990234 6.73828125 -0.09765625 C9 0 9 0 12 1 C12.33 1.99 12.66 2.98 13 4 C15.64 4.33 18.28 4.66 21 5 C21.33 6.32 21.66 7.64 22 9 C22.99 7.68 23.98 6.36 25 5 C25.763125 5.185625 26.52625 5.37125 27.3125 5.5625 C30.08967375 6.22819173 30.08967375 6.22819173 33 5 C33.66 5.66 34.32 6.32 35 7 C35.66 6.67 36.32 6.34 37 6 C38.03125 6.185625 39.0625 6.37125 40.125 6.5625 C43.61048578 6.95602259 44.99616423 6.87998795 48.1875 5.9375 C52.37550002 4.90766393 52.53889541 5.1019749 56 7 C58.33882138 6.70764733 60.67284 6.37400786 63 6 C65.25 6.4375 65.25 6.4375 67 7 C67.99 7 68.98 7 70 7 C72.1875 8.5 72.1875 8.5 74 10 C73.8125 12.3125 73.8125 12.3125 73 15 C70.6875 16.875 70.6875 16.875 68 18 C65.875 17.6875 65.875 17.6875 64 17 C62.04155585 17 60.08298154 17.01993518 58.125 17.0625 C55 17 55 17 52.3125 16.375 C49.73169859 15.68722576 49.73169859 15.68722576 47 18 C44.98415349 17.38290413 42.98248715 16.71706982 41 16 C40.01 16.495 40.01 16.495 39 17 C38.34 16.34 37.68 15.68 37 15 C36.01 15 35.02 15 34 15 C17.7 15 17.7 15 10.0625 13.375 C7.81291133 12.79523366 7.81291133 12.79523366 5 14 C4.34 13.34 3.68 12.68 3 12 C2.01 12 1.02 12 0 12 C-0.33 11.01 -0.66 10.02 -1 9 C-0.00390625 7.17578125 -0.00390625 7.17578125 1.4375 5.3125 C1.91058594 4.68988281 2.38367188 4.06726563 2.87109375 3.42578125 C3.24363281 2.95527344 3.61617187 2.48476562 4 2 C2.02 2.99 2.02 2.99 0 4 C0 2.68 0 1.36 0 0 Z " fill="#7C70EA" transform="translate(229,163)"/>
<path d="M0 0 C0.99 0 1.98 0 3 0 C3.66666667 1.33333333 4.33333333 2.66666667 5 4 C5.34546875 4.54269531 5.6909375 5.08539063 6.046875 5.64453125 C7.41717186 9.03096161 7.38218958 12.33791773 7.375 15.9375 C7.3747583 17.06333496 7.3747583 17.06333496 7.37451172 18.21191406 C7.19487904 27.11791312 4.31168246 34.82521626 1 43 C0.34 41.68 -0.32 40.36 -1 39 C-0.01 38.505 -0.01 38.505 1 38 C0.67 36.68 0.34 35.36 0 34 C-1.98 34.495 -1.98 34.495 -4 35 C-4 34.01 -4 33.02 -4 32 C-4.66 32 -5.32 32 -6 32 C-6.33 30.35 -6.66 28.7 -7 27 C-8.32 27 -9.64 27 -11 27 C-13 24 -13 24 -13 22 C-13.66 21.67 -14.32 21.34 -15 21 C-14.34 19.02 -13.68 17.04 -13 15 C-13.99 15 -14.98 15 -16 15 C-17.5625 13.1875 -17.5625 13.1875 -19 11 C-19.66 10.01 -20.32 9.02 -21 8 C-21 7.01 -21 6.02 -21 5 C-18.13275314 5.57344937 -17.1385485 5.8614515 -15 8 C-13.35008418 8.70710678 -11.68437744 9.37943989 -10 10 C-9.443125 9.443125 -8.88625 8.88625 -8.3125 8.3125 C-5.54166667 5.54166667 -2.77083333 2.77083333 0 0 Z M-18 9 C-17 11 -17 11 -17 11 Z " fill="#7770F2" transform="translate(520,146)"/>
<path d="M0 0 C0.66 0.33 1.32 0.66 2 1 C1.34 2.32 0.68 3.64 0 5 C0.99 5 1.98 5 3 5 C2.34 6.32 1.68 7.64 1 9 C0.34 9 -0.32 9 -1 9 C-1.33 9.99 -1.66 10.98 -2 12 C-2.66 12 -3.32 12 -4 12 C-4 12.66 -4 13.32 -4 14 C-4.66 14.66 -5.32 15.32 -6 16 C-7.50253343 17.7369119 -8.98306716 19.49145805 -10.46484375 21.24609375 C-10.97144531 21.82488281 -11.47804688 22.40367188 -12 23 C-12.47566406 23.56847656 -12.95132812 24.13695313 -13.44140625 24.72265625 C-15 26 -15 26 -19 26 C-18.814375 26.61875 -18.62875 27.2375 -18.4375 27.875 C-18 30 -18 30 -19 32 C-19.99 31.67 -20.98 31.34 -22 31 C-23.34977849 31.63270867 -24.68352881 32.30062468 -26 33 C-26.99 33 -27.98 33 -29 33 C-29 32.34 -29 31.68 -29 31 C-29.66 31 -30.32 31 -31 31 C-30.67 32.32 -30.34 33.64 -30 35 C-33.98188718 36.71767682 -37.96479403 38.41037341 -42 40 C-35.65971916 22.93943754 -22.07540873 10.17729084 -5.9375 2.4375 C-2.65234375 0.93359375 -2.65234375 0.93359375 0 0 Z " fill="#8090F6" transform="translate(433,90)"/>
<path d="M0 0 C0.66 0.99 1.32 1.98 2 3 C2.99 2.01 3.98 1.02 5 0 C5.33 0.66 5.66 1.32 6 2 C6.9075 1.62875 7.815 1.2575 8.75 0.875 C12 0 12 0 14.1875 0.9375 C14.785625 1.288125 15.38375 1.63875 16 2 C16.99 1.67 17.98 1.34 19 1 C18.67 1.99 18.34 2.98 18 4 C19.65 3.67 21.3 3.34 23 3 C23 3.99 23 4.98 23 6 C22.34 6.33 21.68 6.66 21 7 C20.67 7.66 20.34 8.32 20 9 C19.505 8.01 19.505 8.01 19 7 C15.88214887 7.64644661 15.88214887 7.64644661 15 10 C14.34 10 13.68 10 13 10 C13 10.66 13 11.32 13 12 C12.1028125 12.1546875 12.1028125 12.1546875 11.1875 12.3125 C8.71756736 13.08876455 7.67748765 14.07088921 6 16 C5.34 15.67 4.68 15.34 4 15 C3.67 15.99 3.34 16.98 3 18 C0.41927097 20.32265612 -0.45176068 21 -4 21 C-4.33 21.99 -4.66 22.98 -5 24 C-8 24 -8 24 -10 23 C-11.1446875 23.556875 -11.1446875 23.556875 -12.3125 24.125 C-15 25 -15 25 -17.75 23.625 C-18.4925 23.08875 -19.235 22.5525 -20 22 C-20.33 22 -20.66 22 -21 22 C-21 20.35 -21 18.7 -21 17 C-20.360625 16.7525 -19.72125 16.505 -19.0625 16.25 C-16.81258459 15.18437567 -16.81258459 15.18437567 -16.25 12.875 C-16.1675 12.25625 -16.085 11.6375 -16 11 C-15.01 11.33 -14.02 11.66 -13 12 C-12.401875 11.401875 -11.80375 10.80375 -11.1875 10.1875 C-10.465625 9.465625 -9.74375 8.74375 -9 8 C-8.505 7.4225 -8.01 6.845 -7.5 6.25 C-6 5 -6 5 -2 5 C-2 3.68 -2 2.36 -2 1 C-1.34 0.67 -0.68 0.34 0 0 Z " fill="#919CFF" transform="translate(180,97)"/>
<path d="M0 0 C5.46438104 0.02404568 9.12639926 0.59961819 13.875 3.25 C13.545 3.91 13.215 4.57 12.875 5.25 C11.699375 5.2190625 11.699375 5.2190625 10.5 5.1875 C7.89385039 5.06315937 7.89385039 5.06315937 5.875 6.25 C4.905625 6.085 3.93625 5.92 2.9375 5.75 C-0.15452435 5.00153105 -0.15452435 5.00153105 -3.125 6.25 C-3.723125 6.064375 -4.32125 5.87875 -4.9375 5.6875 C-8.03912799 5.0671744 -10.15844518 6.24137136 -13.125 7.25 C-16.5 7.375 -16.5 7.375 -19.125 7.25 C-19.455 7.91 -19.785 8.57 -20.125 9.25 C-21.115 8.92 -22.105 8.59 -23.125 8.25 C-23.455 8.91 -23.785 9.57 -24.125 10.25 C-25.115 10.745 -25.115 10.745 -26.125 11.25 C-26.785 10.59 -27.445 9.93 -28.125 9.25 C-29.0325 10.075 -29.94 10.9 -30.875 11.75 C-33.66124497 14.28294997 -33.99758261 14.25 -38.125 14.25 C-38.455 14.91 -38.785 15.57 -39.125 16.25 C-44.34722222 18.25 -44.34722222 18.25 -47.125 18.25 C-47.455 18.91 -47.785 19.57 -48.125 20.25 C-50.6875 20.875 -50.6875 20.875 -53.125 21.25 C-53.785 19.6 -54.445 17.95 -55.125 16.25 C-51.40626283 13.56904995 -48.63115824 12.00102637 -44.125 11.25 C-43.465 10.59 -42.805 9.93 -42.125 9.25 C-41.361875 9.270625 -40.59875 9.29125 -39.8125 9.3125 C-36.47872777 9.23497041 -34.90423372 8.00530551 -32.125 6.25 C-31.135 6.25 -30.145 6.25 -29.125 6.25 C-27.6090625 5.569375 -27.6090625 5.569375 -26.0625 4.875 C-20.83528999 2.5332987 -15.11559512 1.23721968 -9.3828125 1.26171875 C-6.21298828 1.24526638 -3.58449787 0.04899086 0 0 Z M-52.125 17.25 C-51.795 17.91 -51.465 18.57 -51.125 19.25 C-50.795 18.59 -50.465 17.93 -50.125 17.25 C-50.785 17.25 -51.445 17.25 -52.125 17.25 Z " fill="#5D66E1" transform="translate(192.125,302.75)"/>
<path d="M0 0 C3.52042748 0.35922729 3.71402302 0.96402302 6.0625 3.3125 C7.734049 3.00458308 9.40055547 2.66863097 11.0625 2.3125 C13.63268907 3.127438 15.79232607 4.15694531 18.125 5.5 C20.5148967 6.50221474 21.66625166 6.16830298 24.0625 5.3125 C24.0625 8.3125 24.0625 8.3125 23.0625 11.3125 C22.134375 11.456875 21.20625 11.60125 20.25 11.75 C17.05524889 12.23350111 17.05524889 12.23350111 14.0625 13.3125 C13.485 13.126875 12.9075 12.94125 12.3125 12.75 C8.17512239 11.94550991 4.49038808 13.59855596 0.8125 15.4375 C-1.83761277 18.27690654 -2.78931294 21.65047913 -3.9375 25.3125 C-4.2675 25.3125 -4.5975 25.3125 -4.9375 25.3125 C-4.99536668 21.52089703 -5.03105054 17.72940689 -5.0625 13.9375 C-5.07925781 12.85726562 -5.09601563 11.77703125 -5.11328125 10.6640625 C-5.11972656 9.6328125 -5.12617188 8.6015625 -5.1328125 7.5390625 C-5.14328613 6.58596191 -5.15375977 5.63286133 -5.16455078 4.65087891 C-4.80504554 0.94836151 -3.59095979 0.382017 0 0 Z " fill="#6C72EE" transform="translate(390.9375,147.6875)"/>
<path d="M0 0 C32.34 0 64.68 0 98 0 C96 2 96 2 93.20605469 2.24291992 C92.03977539 2.23881104 90.87349609 2.23470215 89.671875 2.23046875 C88.39699219 2.22853516 87.12210937 2.22660156 85.80859375 2.22460938 C85.1419873 2.21840576 84.47538086 2.21220215 83.78857422 2.20581055 C81.77167956 2.18769473 79.75524834 2.1853 77.73828125 2.18554688 C72.03097548 2.15968295 66.62060816 2.07000754 61 1 C60.67 1.66 60.34 2.32 60 3 C60 2.34 60 1.68 60 1 C59.22914063 1.15597656 58.45828125 1.31195313 57.6640625 1.47265625 C56.15972656 1.76462891 56.15972656 1.76462891 54.625 2.0625 C53.12839844 2.35833984 53.12839844 2.35833984 51.6015625 2.66015625 C49 3 49 3 47 2 C44.45852512 2.0375019 41.96977984 2.14085986 39.4375 2.3125 C38.73947266 2.34794922 38.04144531 2.38339844 37.32226562 2.41992188 C35.54142737 2.53565045 33.76836965 2.75990259 32 3 C31.67 3.66 31.34 4.32 31 5 C29.109375 5.74609375 29.109375 5.74609375 26.75 6.4375 C23.12573917 7.58079995 20.19057511 8.90093742 17 11 C15.73316781 11.73609618 14.46211481 12.46496386 13.1875 13.1875 C11.6096875 14.0846875 11.6096875 14.0846875 10 15 C9.34 14.01 8.68 13.02 8 12 C8.9590625 11.5978125 8.9590625 11.5978125 9.9375 11.1875 C12.33131686 10.11332248 12.33131686 10.11332248 13 7 C14.65 6.67 16.3 6.34 18 6 C18.33 4.68 18.66 3.36 19 2 C16.03 1.505 16.03 1.505 13 1 C12.67 1.66 12.34 2.32 12 3 C10.68 3 9.36 3 8 3 C6.2488427 4.4166747 6.2488427 4.4166747 5 6 C5 4.66666667 5 3.33333333 5 2 C3.35 1.67 1.7 1.34 0 1 C0 0.67 0 0.34 0 0 Z " fill="#799BFB" transform="translate(109,299)"/>
<path d="M0 0 C2.36834218 -0.0006754 4.7366843 -0.00164739 7.10502625 -0.00289917 C12.03755359 -0.00436359 16.97006268 -0.00226133 21.90258789 0.00244141 C28.19760487 0.00815367 34.49257935 0.00484222 40.7875948 -0.00113106 C45.66656307 -0.00475732 50.54552139 -0.00358887 55.42448997 -0.00100327 C57.74512932 -0.00034052 60.0657696 -0.00113936 62.38640785 -0.00348282 C65.63433838 -0.00604523 68.88220141 -0.00211933 72.13012695 0.00341797 C73.07015564 0.00139374 74.01018433 -0.00063049 74.97869873 -0.00271606 C81.73746279 0.01844463 88.4098802 0.48899503 95.13671875 1.1328125 C95.13671875 1.4628125 95.13671875 1.7928125 95.13671875 2.1328125 C78.68094276 3.08536027 62.31076506 3.19806949 45.83203125 3.01171875 C43.28515106 2.98734342 40.73826568 2.96350396 38.19137573 2.94017029 C32.23863357 2.88436749 26.28596153 2.82327599 20.33330142 2.75944895 C13.53973792 2.6869135 6.74611187 2.62139768 -0.04752707 2.55637848 C-13.98619298 2.42282465 -27.92476117 2.28075776 -41.86328125 2.1328125 C-41.86328125 1.8028125 -41.86328125 1.4728125 -41.86328125 1.1328125 C-27.9045712 0.08231712 -13.9931417 -0.01420244 0 0 Z " fill="#B7C9FE" transform="translate(216.86328125,227.8671875)"/>
<path d="M0 0 C2.33944736 0.28730055 4.6739143 0.61936779 7 1 C6.3503125 1.804375 6.3503125 1.804375 5.6875 2.625 C3.79312397 5.29115885 2.40687194 8.05226832 1 11 C2.65 10.34 4.3 9.68 6 9 C6.99 10.485 6.99 10.485 8 12 C8.99 12 9.98 12 11 12 C11 12.66 11 13.32 11 14 C10.34 14 9.68 14 9 14 C9 15.32 9 16.64 9 18 C7.824375 18.433125 7.824375 18.433125 6.625 18.875 C3.90328368 19.84912254 3.90328368 19.84912254 2 22 C0.68 21.01 -0.64 20.02 -2 19 C-2 19.66 -2 20.32 -2 21 C-1.34 21.33 -0.68 21.66 0 22 C-0.66 22 -1.32 22 -2 22 C-2 22.66 -2 23.32 -2 24 C-2.66 23.67 -3.32 23.34 -4 23 C-4.66 23 -5.32 23 -6 23 C-6.99 23 -7.98 23 -9 23 C-9.33 23.66 -9.66 24.32 -10 25 C-10.66 25 -11.32 25 -12 25 C-11.59766249 19.76961239 -10.94516613 17.45202037 -7 14 C-6.67 13.01 -6.34 12.02 -6 11 C-5.34 10.21625 -4.68 9.4325 -4 8.625 C-1.93275123 5.91173598 -1.4599945 4.31196043 -1 1 C-0.67 0.67 -0.34 0.34 0 0 Z " fill="#7D98FE" transform="translate(282,311)"/>
<path d="M0 0 C5.91271602 0.45207889 11.324337 1.17950432 17 3 C18.31122629 3.37942966 19.62371876 3.75451369 20.9375 4.125 C21.948125 4.41375 22.95875 4.7025 24 5 C24 5.99 24 6.98 24 8 C23.01 7.67 22.02 7.34 21 7 C20.34 7.33 19.68 7.66 19 8 C19 7.34 19 6.68 19 6 C16.39220424 5.92549155 14.0645278 5.98709444 11.5 6.5 C8.92540737 7.01491853 6.61862787 7 4 7 C1.56401152 7.40599808 -0.81416153 7.95403289 -3.2109375 8.546875 C-4.00757813 8.73765625 -4.80421875 8.9284375 -5.625 9.125 C-6.38039062 9.31320312 -7.13578125 9.50140625 -7.9140625 9.6953125 C-10 10 -10 10 -13 9 C-16.12935917 9.73751094 -16.12935917 9.73751094 -19 11 C-19.33 11.66 -19.66 12.32 -20 13 C-20 12.34 -20 11.68 -20 11 C-24.60742865 12.21044132 -24.60742865 12.21044132 -29 14 C-28.67 12.35 -28.34 10.7 -28 9 C-26.96875 8.87625 -25.9375 8.7525 -24.875 8.625 C-21.12522738 8.13993877 -21.12522738 8.13993877 -18.1875 7 C-14.50908154 5.84598636 -11.10536 5.62406476 -7.26953125 5.44140625 C-4.57550728 4.91743945 -3.80071301 3.99193917 -2 2 C-1.34 2 -0.68 2 0 2 C0 1.34 0 0.68 0 0 Z " fill="#5659D7" transform="translate(209,313)"/>
<path d="M0 0 C0.33 0 0.66 0 1 0 C1 2.97 1 5.94 1 9 C1.66 9.33 2.32 9.66 3 10 C2.34 10 1.68 10 1 10 C1.08446299 23.16108029 1.17936979 36.32204016 1.28752708 49.4829483 C1.33742506 55.59440348 1.38375579 61.70584192 1.421875 67.81738281 C1.4588097 73.71781577 1.50519209 79.61810643 1.55806351 85.51841736 C1.57656394 87.76697793 1.59168787 90.01556895 1.60334396 92.26417542 C1.62028079 95.419103 1.64933409 98.57370778 1.68115234 101.72851562 C1.68331253 102.65352875 1.68547272 103.57854187 1.68769836 104.53158569 C1.75822673 110.02325419 2.49751617 114.71655035 4 120 C4.30313416 121.95081499 4.56072383 123.90986795 4.75 125.875 C4.84796875 126.80054688 4.9459375 127.72609375 5.046875 128.6796875 C5 131 5 131 3 133 C-0.02429076 125.80559355 -0.41463877 119.33510469 -0.34057617 111.59545898 C-0.34101425 110.384702 -0.34145233 109.17394501 -0.34190369 107.92649841 C-0.34018184 104.63359179 -0.32522143 101.34107643 -0.30418181 98.0482471 C-0.28532385 94.59696603 -0.28365744 91.14567584 -0.28010559 87.6943512 C-0.27081173 81.17095671 -0.24623436 74.64771452 -0.21605712 68.12438685 C-0.18242986 60.69266032 -0.16600626 53.26092622 -0.15097082 45.82914245 C-0.11968211 30.55267368 -0.06697392 15.27635655 0 0 Z " fill="#5458D5" transform="translate(44,366)"/>
<path d="M0 0 C19.305 0.495 19.305 0.495 39 1 C39 1.66 39 2.32 39 3 C35.54691689 5.09651475 35.54691689 5.09651475 32.875 4.625 C32.25625 4.41875 31.6375 4.2125 31 4 C30.34 4 29.68 4 29 4 C28.67 4.66 28.34 5.32 28 6 C27.236875 5.814375 26.47375 5.62875 25.6875 5.4375 C22.91032625 4.77180827 22.91032625 4.77180827 20 6 C19.67 6.66 19.34 7.32 19 8 C18 8 17 8 16 8 C14.65863633 8.65035814 13.32467746 9.3162955 12 10 C11.46890625 9.52949219 10.9378125 9.05898438 10.390625 8.57421875 C9.68421875 7.95160156 8.9778125 7.32898438 8.25 6.6875 C7.20585937 5.76517578 7.20585937 5.76517578 6.140625 4.82421875 C4.15944134 3.13587428 2.08239797 1.56179848 0 0 Z M17 4 C17 4.66 17 5.32 17 6 C17.66 5.67 18.32 5.34 19 5 C18.34 4.67 17.68 4.34 17 4 Z " fill="#6E79F8" transform="translate(140,527)"/>
<path d="M0 0 C9.24 0 18.48 0 28 0 C28 0.33 28 0.66 28 1 C26.39318359 1.07347656 26.39318359 1.07347656 24.75390625 1.1484375 C23.35674361 1.22345294 21.9596095 1.2990013 20.5625 1.375 C19.85544922 1.4059375 19.14839844 1.436875 18.41992188 1.46875 C16.60760812 1.57280629 14.80182012 1.77919892 13 2 C12.67 2.66 12.34 3.32 12 4 C10.109375 4.74609375 10.109375 4.74609375 7.75 5.4375 C4.12573917 6.58079995 1.19057511 7.90093742 -2 10 C-3.26683219 10.73609618 -4.53788519 11.46496386 -5.8125 12.1875 C-7.3903125 13.0846875 -7.3903125 13.0846875 -9 14 C-9.66 13.01 -10.32 12.02 -11 11 C-10.0409375 10.5978125 -10.0409375 10.5978125 -9.0625 10.1875 C-6.66868314 9.11332248 -6.66868314 9.11332248 -6 6 C-4.35 5.67 -2.7 5.34 -1 5 C-0.67 3.35 -0.34 1.7 0 0 Z " fill="#6773ED" transform="translate(128,300)"/>
<path d="M0 0 C2 1 2 1 4 4 C3.67 4.33 3.34 4.66 3 5 C7.39253773 6.56272189 7.39253773 6.56272189 12 7 C11.01 8.32 10.02 9.64 9 11 C8.01 10.34 7.02 9.68 6 9 C5.67 10.32 5.34 11.64 5 13 C4.34 13 3.68 13 3 13 C3 13.66 3 14.32 3 15 C1 16.625 1 16.625 -1 18 C-1 16.68 -1 15.36 -1 14 C-3.41666771 11.24958334 -3.41666771 11.24958334 -6 9 C-4.68 8.01 -3.36 7.02 -2 6 C-2.33 5.01 -2.66 4.02 -3 3 C-2.01 2.01 -1.02 1.02 0 0 Z " fill="#7C91FF" transform="translate(309,348)"/>
<path d="M0 0 C0.90105469 0.00902344 1.80210937 0.01804687 2.73046875 0.02734375 C3.41753906 0.03894531 4.10460937 0.05054687 4.8125 0.0625 C4.8125 3.0625 4.8125 3.0625 3.3125 4.75 C2.8175 5.183125 2.3225 5.61625 1.8125 6.0625 C1.4825 5.7325 1.1525 5.4025 0.8125 5.0625 C0.1525 5.7225 -0.5075 6.3825 -1.1875 7.0625 C-2.1775 7.0625 -3.1675 7.0625 -4.1875 7.0625 C-3.5275 7.7225 -2.8675 8.3825 -2.1875 9.0625 C-2.5175 10.0525 -2.8475 11.0425 -3.1875 12.0625 C-4.1775 12.0625 -5.1675 12.0625 -6.1875 12.0625 C-6.5175 13.0525 -6.8475 14.0425 -7.1875 15.0625 C-8.23726964 11.91319107 -8.28881595 9.67435544 -8.25 6.375 C-8.24097656 5.38113281 -8.23195312 4.38726562 -8.22265625 3.36328125 C-8.21105469 2.60402344 -8.19945312 1.84476562 -8.1875 1.0625 C-5.17259443 0.05753148 -3.14568308 -0.04085303 0 0 Z " fill="#8792FA" transform="translate(168.1875,125.9375)"/>
<path d="M0 0 C0.825 -0.165 1.65 -0.33 2.5 -0.5 C5 -1 5 -1 8 0 C8 0.66 8 1.32 8 2 C1.375 4.125 1.375 4.125 -2 3 C-4.01723344 3.96476382 -6.01612292 4.96838392 -8 6 C-10.875 6.6875 -10.875 6.6875 -13 7 C-13 3 -13 3 -12 0 C-10.68 0 -9.36 0 -8 0 C-6.7315625 -0.2784375 -6.7315625 -0.2784375 -5.4375 -0.5625 C-3 -1 -3 -1 0 0 Z " fill="#494ECB" transform="translate(210,334)"/>
<path d="M0 0 C0.99 0.66 1.98 1.32 3 2 C3.721875 1.855625 4.44375 1.71125 5.1875 1.5625 C9.08687069 0.78262586 12.08570964 1.2823801 16 2 C16.33 2.66 16.66 3.32 17 4 C18.89533342 4.46523063 18.89533342 4.46523063 21.0625 4.625 C22.361875 4.74875 23.66125 4.8725 25 5 C25 5.33 25 5.66 25 6 C5.03189066 6.3690205 5.03189066 6.3690205 -4 4 C-2.68 2.68 -1.36 1.36 0 0 Z " fill="#6055D9" transform="translate(441,223)"/>
<path d="M0 0 C6.625 -0.25 6.625 -0.25 10 2 C9.25 4.4375 9.25 4.4375 8 7 C5.9375 7.6875 5.9375 7.6875 4 8 C3.67 8.66 3.34 9.32 3 10 C1.68 9.67 0.36 9.34 -1 9 C-0.67 6.03 -0.34 3.06 0 0 Z " fill="#7B7AF3" transform="translate(167,144)"/>
<path d="M0 0 C7.92 0 15.84 0 24 0 C24 0.33 24 0.66 24 1 C19.545 1.495 19.545 1.495 15 2 C15.33 3.32 15.66 4.64 16 6 C15.34 6 14.68 6 14 6 C14.33 6.99 14.66 7.98 15 9 C14.01 9.33 13.02 9.66 12 10 C10 6.25 10 6.25 10 4 C9.34 4 8.68 4 8 4 C7.67 4.66 7.34 5.32 7 6 C6.67 4.35 6.34 2.7 6 1 C4.02 1 2.04 1 0 1 C0 0.67 0 0.34 0 0 Z " fill="#8B8CF7" transform="translate(444,87)"/>
<path d="M0 0 C1.7015625 0.2475 1.7015625 0.2475 3.4375 0.5 C6.83278957 1.31993361 6.83278957 1.31993361 9 0 C9.66 0.33 10.32 0.66 11 1 C11 1.66 11 2.32 11 3 C9.329375 3.2165625 9.329375 3.2165625 7.625 3.4375 C4.17857953 3.78372035 4.17857953 3.78372035 2 5 C2 4.34 2 3.68 2 3 C0.02 3.99 0.02 3.99 -2 5 C-2 4.34 -2 3.68 -2 3 C-2.928125 3.33 -3.85625 3.66 -4.8125 4 C-9.46719742 5.46029723 -13.23430681 4.71934992 -18 4 C-17.67 3.01 -17.34 2.02 -17 1 C-17 1.66 -17 2.32 -17 3 C-16.34773437 2.855625 -15.69546875 2.71125 -15.0234375 2.5625 C-10.24653218 1.54793604 -5.90577928 0.87421079 -1 1 C-0.67 0.67 -0.34 0.34 0 0 Z " fill="#686FF4" transform="translate(187,539)"/>
<path d="M0 0 C3.125 -0.1875 3.125 -0.1875 6 0 C4.25 3.875 4.25 3.875 2 5 C2 5.99 2 6.98 2 8 C0.02 8.99 0.02 8.99 -2 10 C-2.33 15.94 -2.66 21.88 -3 28 C-3.33 28 -3.66 28 -4 28 C-4.05421223 24.95809137 -4.09377548 21.91716001 -4.125 18.875 C-4.15013672 17.59109375 -4.15013672 17.59109375 -4.17578125 16.28125 C-4.22415373 9.99282809 -3.56748065 5.35122097 0 0 Z " fill="#878DF3" transform="translate(389,140)"/>
<path d="M0 0 C0.598125 0.165 1.19625 0.33 1.8125 0.5 C4.11344336 1.1114124 4.11344336 1.1114124 7 1 C7.66 1.66 8.32 2.32 9 3 C6.77431099 5.22568901 4.84506944 6.64520503 2 8 C-0.0625 7.125 -0.0625 7.125 -2 6 C-4.19747131 6.29805007 -4.19747131 6.29805007 -6 7 C-6.33 6.01 -6.66 5.02 -7 4 C-4.69 3.34 -2.38 2.68 0 2 C0 1.34 0 0.68 0 0 Z " fill="#858EFF" transform="translate(348,338)"/>
<path d="M0 0 C0.66 0 1.32 0 2 0 C3.29777404 5.11338516 2.58091094 8.05050555 0.5625 12.875 C0.08941406 14.02742187 -0.38367188 15.17984375 -0.87109375 16.3671875 C-1.24363281 17.23601562 -1.61617187 18.10484375 -2 19 C-2.66 17.68 -3.32 16.36 -4 15 C-3.34 14.67 -2.68 14.34 -2 14 C-1.10906551 10.35526801 -0.76333953 7.57257469 -2 4 C-1.34 4 -0.68 4 0 4 C-0.33 3.01 -0.66 2.02 -1 1 C-0.67 0.67 -0.34 0.34 0 0 Z " fill="#7D76EC" transform="translate(523,170)"/>
<path d="M0 0 C3 1 3 1 3.9375 2.8125 C4 5 4 5 2.25 7.1875 C0 9 0 9 -3 10 C-3.66 9.01 -4.32 8.02 -5 7 C-4.34 7 -3.68 7 -3 7 C-1.92962045 5.04582216 -1.92962045 5.04582216 -1.5 2.9375 C-1 1 -1 1 0 0 Z " fill="#AA92FC" transform="translate(285,105)"/>
<path d="M0 0 C0.99 0.33 1.98 0.66 3 1 C1.71937515 2.7074998 0.38232443 4.37373596 -1 6 C-1.66 6 -2.32 6 -3 6 C-3.33 6.66 -3.66 7.32 -4 8 C-4.99 7.67 -5.98 7.34 -7 7 C-6.01 5.02 -5.02 3.04 -4 1 C-2.68 1.33 -1.36 1.66 0 2 C0 1.34 0 0.68 0 0 Z " fill="#7D92FF" transform="translate(306,346)"/>
<path d="M0 0 C7.42857143 1 7.42857143 1 11 2 C11.33 3.98 11.66 5.96 12 8 C9 8 9 8 7.5 6.7578125 C7.005 6.21898437 6.51 5.68015625 6 5.125 C4.02823946 2.99919566 2.4666314 1.64442093 0 0 Z " fill="#7A82F6" transform="translate(140,527)"/>
<path d="M0 0 C0.33 0.99 0.66 1.98 1 3 C0.34 3.66 -0.32 4.32 -1 5 C-1.33 4.67 -1.66 4.34 -2 4 C-2.66 4.66 -3.32 5.32 -4 6 C-5.32 5.34 -6.64 4.68 -8 4 C-5.52914451 0.29371676 -4.37054922 0 0 0 Z " fill="#4D56D2" transform="translate(188,328)"/>
<path d="M0 0 C4.75 0.75 4.75 0.75 7 3 C6.625 5.625 6.625 5.625 6 8 C1.2 4.55384615 1.2 4.55384615 0.1875 1.75 C0.125625 1.1725 0.06375 0.595 0 0 Z " fill="#9083F3" transform="translate(286,43)"/>
<path d="M0 0 C5.445 1.485 5.445 1.485 11 3 C6.64467851 5.17766075 5.53374042 5.03039555 1 4 C0.67 2.68 0.34 1.36 0 0 Z " fill="#8D85F4" transform="translate(474,89)"/>
<path d="M0 0 C0.66 0.33 1.32 0.66 2 1 C0.9375 2.5 0.9375 2.5 -1 4 C-4.6875 4.1875 -4.6875 4.1875 -8 4 C-7.67 3.01 -7.34 2.02 -7 1 C-4 0 -4 0 0 0 Z " fill="#686DF6" transform="translate(216,538)"/>
<path d="M0 0 C2.31 0 4.62 0 7 0 C7.33 0.99 7.66 1.98 8 3 C5.03 3 2.06 3 -1 3 C-0.67 2.01 -0.34 1.02 0 0 Z " fill="#5043D3" transform="translate(458,225)"/>
<path d="M0 0 C0.66 0 1.32 0 2 0 C2 2.97 2 5.94 2 9 C1.34 8.67 0.68 8.34 0 8 C-0.6875 4.5 -0.6875 4.5 -1 1 C-0.67 0.67 -0.34 0.34 0 0 Z " fill="#8A81F3" transform="translate(525,145)"/>
<path d="M0 0 C0.66 0 1.32 0 2 0 C3.38938077 1.96147874 4.7260411 3.96166576 6 6 C5.01 7.485 5.01 7.485 4 9 C0 2.25 0 2.25 0 0 Z " fill="#635ADF" transform="translate(393,189)"/>
<path d="M0 0 C1.32 0.99 2.64 1.98 4 3 C3.67 3.66 3.34 4.32 3 5 C0.4375 5.625 0.4375 5.625 -2 6 C-1.49396008 3.83125748 -1.00016187 2.00032373 0 0 Z " fill="#9D9AFE" transform="translate(210,74)"/>
<path d="M0 0 C0.66 0 1.32 0 2 0 C2.33 1.65 2.66 3.3 3 5 C2.34 5 1.68 5 1 5 C1 7.31 1 9.62 1 12 C0.67 12 0.34 12 0 12 C0 8.04 0 4.08 0 0 Z " fill="#5E5DCE" transform="translate(44,478)"/>
<path d="M0 0 C2.31 0 4.62 0 7 0 C7.66 1.32 8.32 2.64 9 4 C6.16032769 4 3.76264289 3.59732819 1 3 C0.67 2.01 0.34 1.02 0 0 Z " fill="#5A5AD7" transform="translate(235,319)"/>
<path d="M0 0 C0.99 0.33 1.98 0.66 3 1 C3.625 3.375 3.625 3.375 4 6 C3.34 6.66 2.68 7.32 2 8 C0.74335022 5.09399739 0 3.20395416 0 0 Z " fill="#6563D0" transform="translate(45,491)"/>
<path d="M0 0 C-0.45375 0.433125 -0.9075 0.86625 -1.375 1.3125 C-3.20024334 3.10798342 -3.20024334 3.10798342 -5 6 C-5.33 5.01 -5.66 4.02 -6 3 C-8.00016466 1.79117904 -8.00016466 1.79117904 -10 1 C-6.59437148 0.22157062 -3.49234244 -0.09978121 0 0 Z " fill="#B3ADFB" transform="translate(236,30)"/>
<path d="M0 0 C1.9375 0.25 1.9375 0.25 4 1 C4.66 1.99 5.32 2.98 6 4 C2.48283697 4 1.62878252 3.17554415 -1 1 C-0.67 0.67 -0.34 0.34 0 0 Z " fill="#8491FF" transform="translate(335,337)"/>
<path d="M0 0 C0.94875 0.04125 1.8975 0.0825 2.875 0.125 C2.545 0.785 2.215 1.445 1.875 2.125 C0.555 2.125 -0.765 2.125 -2.125 2.125 C-3.8761573 3.5416747 -3.8761573 3.5416747 -5.125 5.125 C-5.125 0.85616396 -4.22482433 0.16899297 0 0 Z " fill="#6D78F2" transform="translate(119.125,299.875)"/>
<path d="M0 0 C0.99 0.33 1.98 0.66 3 1 C2.34 2.65 1.68 4.3 1 6 C0.01 5.34 -0.98 4.68 -2 4 C-2 3.34 -2 2.68 -2 2 C-1.34 2 -0.68 2 0 2 C0 1.34 0 0.68 0 0 Z " fill="#6F68E5" transform="translate(514,193)"/>
<path d="M0 0 C0.66 0.33 1.32 0.66 2 1 C0.68 1.33 -0.64 1.66 -2 2 C-2.33 3.65 -2.66 5.3 -3 7 C-3.33 6.01 -3.66 5.02 -4 4 C-4.99 3.67 -5.98 3.34 -7 3 C-4.69631264 1.93347808 -2.35981813 0.93578995 0 0 Z " fill="#9AA5F8" transform="translate(433,90)"/>
</svg>
